<svg version="1.1" id="レイヤー_1" xmlns="http://www.w3.org/2000/svg" x="0" y="0" viewBox="0 0 322 158" xml:space="preserve"><style>.st0{fill:#fff}</style><path class="st0" d="M315.45 111.54c-2.52-1.96-5.36-.32-5.36 1.96v1.13h-1.54c-4.18-.4-7.46-3.99-7.46-8.35v-.65H273.1l.06.02c-3.27 0-5.92 2.49-5.93 5.57.26 22.33 17.69 36 41.17 36.41h1.69v2.1c0 .52.23 1.02.64 1.33 2.52 1.96 5.36.32 5.36-1.95v-36.23c0-.53-.23-1.02-.64-1.34zM197.17 56.9c12.44 0 22.53-10.09 22.53-22.53 0-12.44-10.08-22.53-22.53-22.53-12.44 0-22.53 10.09-22.53 22.53 0 12.44 10.09 22.53 22.53 22.53zM150.78 18.93c.05.07-.03-.07 0 0z"/><path class="st0" d="M211.32 110.69c-1.58 0-3.23 2.85-3.23 2.85v1.08h-16.85l-41.04-96.3c-1.88-4.43-6.45-8.7-12.97-8.7l-17.15-.01V7.62c0-.61-.26-1.2-.75-1.56-2.5-1.86-5.25-.2-5.25 2.06v41.36c0 .6.26 1.2.74 1.56 2.49 1.86 5.26.22 5.26-2.06v-1.36h6l36.05 86.56c3.15 8.51 11.94 13.85 20.5 13.44h25.45v1.9c.37 1.58 1.65 2.85 3.23 2.85s2.86-1.28 2.77-2.85v-35.98c.1-1.57-1.18-2.85-2.76-2.85z"/><path class="st0" d="M197.77 99.62h21.72c2.96 0 5.39 2.29 5.61 5.19v41.16c0 3.11 2.54 5.65 5.65 5.65h26.72c3.1 0 5-2.53 5.63-5.62v-41.09c.15-2.92 2.57-5.24 5.56-5.29l40.76-.01c3.12 0 5.68-2.51 5.68-5.57V67.71c0-3.07-2.56-5.58-5.68-5.09l-41.17.01a5.642 5.642 0 01-5.15-5.37l.03-45.98c0-3.11-2.53-5.66-5.63-5.66h-26.74c-3.11 0-5.65 2.54-5.65 5.65V57.3a5.567 5.567 0 01-4.79 5.32h-38.34l15.79 37z"/><path class="st0" d="M314.08 5.62c-2.08-.63-3.99.82-3.99 2.71v1.3h-1.69c-23.64.42-41.18 16.99-41.19 41.33 0 3.12 2.53 5.67 5.65 5.67h28.23v-6.25c0-4.54 3.29-7.34 7.46-7.75h1.54v1.61c0 1.28.79 2.48 2.01 2.85 2.08.63 3.99-.82 3.99-2.7V8.47c0-1.28-.78-2.48-2.01-2.85zM103.09 49.53V8.76c-.14-1.58-1.41-2.85-2.99-2.85-1.58 0-2.85 1.28-3.01 2.85v1.86H78.33c-6.28-.37-10.91 3.41-13.03 8.44l-38.28 90.08c-3.99 8.95-.7 18.86 8.26 22.85 8.96 3.99 19.45-.04 23.43-9l31.33-74.37h7.05v.91c.16 1.58 1.43 2.86 3.01 2.86 1.58-.01 2.86-1.28 2.99-2.86z"/><path class="st0" d="M79.13 117.53c.27-7.08-1.49-13.73-4.72-19.43l-11.39 27.2a22.49 22.49 0 01-20.53 13.33c-3.32 0-6.54-.72-9.57-2.15-4.47-2.1-8.16-5.65-10.4-10.05-3.14-6.17-3.31-13.19-.54-19.41l11.51-26.4c-15.85 4.03-27.58 18.4-27.58 35.5 0 20.57 16.96 37.18 37.66 36.61 19.12-.53 34.83-16.09 35.56-35.2z"/></svg>