<svg id="レイヤー_1" xmlns="http://www.w3.org/2000/svg" width="92.197" height="42.346"><style>.st0{fill:#fff}</style><path class="st0" d="M75.836 42.346h-8.564c-.871 0-1.58-.709-1.58-1.579v-12.74c0-.609-.496-1.105-1.105-1.105h-5.324c-.832 0-1.781-.583-2.158-1.327l-4.396-8.729c-.195-.396-.207-.783-.021-1.079.185-.305.531-.466.973-.466h10.928c.609 0 1.105-.496 1.105-1.104V3.342c0-.875.709-1.58 1.58-1.58h8.564c.871 0 1.58.705 1.58 1.58v10.874c0 .291.117.569.324.778.209.209.484.322.781.322l12.099-.018c.422 0 .815.165 1.111.466.296.295.455.695.452 1.114l-.1 8.467c-.013.871-.727 1.575-1.597 1.575H78.521c-.609 0-1.105.496-1.105 1.105v12.74c0 .872-.709 1.581-1.58 1.581z"/><path class="st0" d="M57.489 13.267c-3.22 0-5.842-2.624-5.842-5.844s2.622-5.839 5.842-5.839 5.842 2.62 5.842 5.839c0 3.221-2.622 5.844-5.842 5.844zM92.197 42.346h-.227c-.713 0-1.229-.461-1.229-1.092v-.539c-6.37-.122-11.511-5.335-11.511-11.726v-.23h9.299v.23c0 1.266.973 2.311 2.213 2.428v-.479c0-.636.516-1.092 1.229-1.092h.227v12.5zM19.813 4.443l-.202-.096-.251.009v-.009c0-.1.075-.2.094-.213l.168.165.077.043h.134l-.127.004.122.069a.712.712 0 0 1-.015.028z"/><path class="st0" d="M7.826 36.385c-2.341-1.253-3.238-4.168-1.992-6.51l2.992-5.621L19.223 4.212c.822-1.536 2.413-2.515 4.156-2.55h5.586v-.531C28.964.531 29.547 0 30.212 0h.238v12.958h-.238c-.665 0-1.248-.527-1.248-1.131v-.536h-2.598l-9.038 17.484-2.993 5.621c-1.144 2.177-4.137 3.265-6.509 1.989zM63.666 42.346h-.324c-.596 0-1.262-.465-1.262-1.131v-.557h-7.299c-1.844 0-3.547-1.07-4.346-2.737L36.54 11.391h-2.599v.436c0 .648-.676 1.131-1.277 1.131h-.238V0h.238c.602 0 1.277.487 1.277 1.131v.627l5.582.004c1.748.035 3.338 1.01 4.16 2.546l13.98 26.722h4.417v-.51c0-.666.666-1.127 1.262-1.127h.324v12.953z"/><path class="st0" d="M10.085 42.168C4.524 42.168 0 37.643 0 32.083c0-4.326 2.749-8.167 6.841-9.556l.7-.239-3.466 6.623c-.848 1.605-1.019 3.445-.481 5.178.535 1.731 1.713 3.154 3.319 3.998.975.519 2.07.788 3.164.788 2.531 0 4.835-1.388 6.014-3.624l3.501-6.632.202.714c.25.887.377 1.814.377 2.75 0 5.56-4.524 10.085-10.086 10.085zM88.529 13.589H79.23v-.231c0-6.392 5.143-11.609 11.512-11.731v-.535c0-.626.649-1.092 1.229-1.092h.227v12.501h-.227c-.58 0-1.229-.466-1.229-1.092v-.478c-1.24.112-2.213 1.161-2.213 2.427v.231z"/></svg>