<svg xmlns="http://www.w3.org/2000/svg" width="86.486" height="20.538"><path fill="#4C6EF5" d="M86.486 3.745v13.08c-.004 2.054-1.688 3.719-3.746 3.713H3.714C1.66 20.534-.004 18.848 0 16.793V3.714C.005 1.659 1.691-.005 3.746 0h79.027c2.053.004 3.718 1.688 3.713 3.745z"/><g fill="#FFF"><path d="M27.755 12.737c0-1.067.708-1.751 1.523-2.183v-.048c-.672-.492-1.175-1.127-1.175-2.039 0-1.427 1.139-2.339 2.674-2.339 1.571 0 2.578.936 2.578 2.351 0 .852-.575 1.548-1.139 1.943v.06c.803.456 1.486 1.092 1.486 2.255 0 1.344-1.187 2.375-2.986 2.375-1.69 0-2.961-.983-2.961-2.375zm4.306-.059c0-.863-.827-1.176-1.967-1.644-.468.372-.815.899-.815 1.512 0 .804.659 1.319 1.487 1.319.755 0 1.295-.42 1.295-1.187zM31.917 8.6c0-.72-.433-1.223-1.176-1.223-.6 0-1.079.384-1.079 1.091 0 .792.695 1.163 1.619 1.523.408-.431.636-.899.636-1.391zM35.207 8.228h1.439l.131.9h.037c.562-.588 1.187-1.067 2.062-1.067.959 0 1.523.432 1.847 1.175.612-.647 1.259-1.175 2.135-1.175 1.427 0 2.087 1.007 2.087 2.698v4.186h-1.763v-3.97c0-1.044-.3-1.403-.936-1.403-.384 0-.815.252-1.296.756v4.617H39.2v-3.97c0-1.044-.312-1.403-.948-1.403-.384 0-.815.252-1.283.756v4.617h-1.763V8.228zM46.355 11.586c0-2.171 1.535-3.525 3.13-3.525 1.847 0 2.806 1.354 2.806 3.202 0 .336-.035.659-.084.815H48.07c.144 1.104.863 1.679 1.858 1.679.552 0 1.032-.168 1.511-.468l.6 1.079a4.224 4.224 0 0 1-2.338.744c-1.883 0-3.346-1.307-3.346-3.526zm4.425-.684c0-.899-.407-1.475-1.271-1.475-.708 0-1.332.503-1.464 1.475h2.735zM53.998 12.594V9.619h-.947V8.312l1.043-.084.204-1.811h1.464v1.811h1.654V9.62h-1.654v2.975c0 .768.312 1.127.911 1.127.216 0 .479-.071.659-.144l.288 1.283c-.36.12-.827.252-1.415.252-1.596-.001-2.207-1.02-2.207-2.519zM58.367 11.586c0-2.171 1.535-3.525 3.13-3.525 1.847 0 2.806 1.354 2.806 3.202 0 .336-.035.659-.084.815h-4.137c.144 1.104.863 1.679 1.858 1.679.552 0 1.032-.168 1.511-.468l.6 1.079a4.224 4.224 0 0 1-2.338.744c-1.883 0-3.346-1.307-3.346-3.526zm4.425-.684c0-.899-.407-1.475-1.271-1.475-.708 0-1.332.503-1.464 1.475h2.735zM65.758 8.228h1.439l.132 1.188h.036c.492-.875 1.211-1.354 1.906-1.354.373 0 .588.06.792.144l-.3 1.523a2.243 2.243 0 0 0-.707-.108c-.528 0-1.164.348-1.535 1.319v4.006h-1.764V8.228zM70.354 14.165l.804-1.104c.6.468 1.175.731 1.799.731.672 0 .971-.288.971-.708 0-.503-.695-.731-1.402-1.007-.852-.324-1.799-.84-1.799-1.967 0-1.199.971-2.051 2.506-2.051.972 0 1.728.407 2.279.827l-.792 1.069c-.48-.348-.948-.575-1.439-.575-.612 0-.9.264-.9.647 0 .491.624.671 1.332.936.887.335 1.871.779 1.871 2.026 0 1.176-.924 2.123-2.676 2.123-.898 0-1.883-.395-2.554-.947z"/></g><path fill="#FFF" d="M14.285 3.302c-3.992 0-7.088 2.92-7.088 6.861 0 2.062.848 3.844 2.227 5.075.238.214.189.337.229 1.66a.568.568 0 0 0 .795.501c1.509-.664 1.528-.717 1.784-.647 4.372 1.203 9.11-1.595 9.11-6.589.001-3.941-3.063-6.861-7.057-6.861z"/><path fill="#4C6EF5" d="M18.541 8.582l-2.082 3.297a1.066 1.066 0 0 1-1.471.328c-.021-.015-.045-.029-.066-.046l-1.656-1.24a.432.432 0 0 0-.514 0l-2.234 1.695c-.299.227-.689-.132-.488-.446l2.082-3.296a1.064 1.064 0 0 1 1.537-.283l1.656 1.239a.432.432 0 0 0 .514 0l2.236-1.693c.297-.228.687.129.486.445z"/></svg>