<svg xmlns="http://www.w3.org/2000/svg" width="86.643" height="20.538"><path fill="#47C91E" d="M86.643 3.745v13.08c-.004 2.054-1.688 3.719-3.746 3.713H3.87c-2.054-.004-3.718-1.69-3.714-3.745V3.714C.161 1.659 1.848-.005 3.902 0H82.93c2.052.004 3.717 1.688 3.713 3.745z"/><path fill="#FFF" d="M21.871 9.366c0-3.347-3.355-6.07-7.477-6.07S6.915 6.02 6.915 9.366c0 2.999 2.659 5.511 6.254 5.987.875.188.774.509.578 1.688-.033.188-.152.738.646.403.797-.334 4.305-2.535 5.877-4.342 1.084-1.191 1.601-2.397 1.601-3.736z"/><path fill="#47C91E" d="M16.631 7.895v3.26a.144.144 0 0 1-.146.146h-.522a.147.147 0 0 1-.119-.06l-1.495-2.017v1.935a.144.144 0 0 1-.146.146h-.522a.145.145 0 0 1-.147-.146V7.898c0-.082.064-.146.147-.146h.519c.045 0 .096.022.119.063l1.494 2.018V7.898c0-.082.064-.146.146-.146h.523a.145.145 0 0 1 .149.143zM12.872 7.748h-.522a.143.143 0 0 0-.146.146v3.26c0 .082.063.146.146.146h.522a.144.144 0 0 0 .146-.146v-3.26a.146.146 0 0 0-.146-.146zM11.611 10.479h-1.426V7.895a.144.144 0 0 0-.146-.146h-.523a.144.144 0 0 0-.146.146v3.26c0 .042.014.073.041.101a.157.157 0 0 0 .102.041h2.096a.144.144 0 0 0 .146-.146v-.522c-.001-.08-.066-.15-.144-.15zM19.382 7.748h-2.095a.146.146 0 0 0-.146.146v3.26c0 .078.063.146.146.146h2.095a.144.144 0 0 0 .146-.146v-.522a.144.144 0 0 0-.146-.147h-1.426v-.55h1.426a.144.144 0 0 0 .146-.146v-.528a.144.144 0 0 0-.146-.146h-1.426v-.552h1.426a.143.143 0 0 0 .146-.146v-.522c-.005-.079-.068-.147-.146-.147z"/><g><g fill="#FFF"><path d="M27.755 12.737c0-1.067.708-1.751 1.523-2.183v-.048c-.672-.492-1.175-1.127-1.175-2.039 0-1.427 1.139-2.339 2.674-2.339 1.571 0 2.578.936 2.578 2.351 0 .852-.575 1.548-1.139 1.943v.06c.803.456 1.486 1.092 1.486 2.255 0 1.344-1.187 2.375-2.986 2.375-1.69 0-2.961-.983-2.961-2.375zm4.306-.059c0-.863-.827-1.176-1.967-1.644-.468.372-.815.899-.815 1.512 0 .804.659 1.319 1.487 1.319.755 0 1.295-.42 1.295-1.187zM31.917 8.6c0-.72-.433-1.223-1.176-1.223-.6 0-1.079.384-1.079 1.091 0 .792.695 1.163 1.619 1.523.408-.431.636-.899.636-1.391zM35.207 8.228h1.439l.131.9h.037c.562-.588 1.187-1.067 2.062-1.067.959 0 1.523.432 1.847 1.175.612-.647 1.259-1.175 2.135-1.175 1.427 0 2.087 1.007 2.087 2.698v4.186h-1.763v-3.97c0-1.044-.3-1.403-.936-1.403-.384 0-.815.252-1.296.756v4.617H39.2v-3.97c0-1.044-.312-1.403-.948-1.403-.384 0-.815.252-1.283.756v4.617h-1.763V8.228zM46.355 11.586c0-2.171 1.535-3.525 3.13-3.525 1.847 0 2.806 1.354 2.806 3.202 0 .336-.035.659-.084.815H48.07c.144 1.104.863 1.679 1.858 1.679.552 0 1.032-.168 1.511-.468l.6 1.079a4.224 4.224 0 0 1-2.338.744c-1.883 0-3.346-1.307-3.346-3.526zm4.425-.684c0-.899-.407-1.475-1.271-1.475-.708 0-1.332.503-1.464 1.475h2.735zM53.998 12.594V9.619h-.947V8.312l1.043-.084.204-1.811h1.464v1.811h1.654V9.62h-1.654v2.975c0 .768.312 1.127.911 1.127.216 0 .479-.071.659-.144l.288 1.283c-.36.12-.827.252-1.415.252-1.596-.001-2.207-1.02-2.207-2.519zM58.367 11.586c0-2.171 1.535-3.525 3.13-3.525 1.847 0 2.806 1.354 2.806 3.202 0 .336-.035.659-.084.815h-4.137c.144 1.104.863 1.679 1.858 1.679.552 0 1.032-.168 1.511-.468l.6 1.079a4.224 4.224 0 0 1-2.338.744c-1.883 0-3.346-1.307-3.346-3.526zm4.425-.684c0-.899-.407-1.475-1.271-1.475-.708 0-1.332.503-1.464 1.475h2.735zM65.758 8.228h1.439l.132 1.188h.036c.492-.875 1.211-1.354 1.906-1.354.373 0 .588.06.792.144l-.3 1.523a2.243 2.243 0 0 0-.707-.108c-.528 0-1.164.348-1.535 1.319v4.006h-1.764V8.228zM70.354 14.165l.804-1.104c.6.468 1.175.731 1.799.731.672 0 .971-.288.971-.708 0-.503-.695-.731-1.402-1.007-.852-.324-1.799-.84-1.799-1.967 0-1.199.971-2.051 2.506-2.051.972 0 1.728.407 2.279.827l-.792 1.069c-.48-.348-.948-.575-1.439-.575-.612 0-.9.264-.9.647 0 .491.624.671 1.332.936.887.335 1.871.779 1.871 2.026 0 1.176-.924 2.123-2.676 2.123-.898 0-1.883-.395-2.554-.947z"/></g></g></svg>