<svg id="レイヤー_1" xmlns="http://www.w3.org/2000/svg" width="89.186" height="89.186"><style>.st0{fill:#040000}</style><path class="st0" d="M40.787 49.328c.289 0 .582-.075.846-.225l10.654-6.153c.521-.302.842-.859.842-1.461s-.319-1.16-.842-1.463l-10.654-6.152a1.708 1.708 0 0 0-1.692 0c-.521.303-.84.86-.84 1.462V47.64c0 .603.319 1.16.84 1.463.262.149.553.225.846.225zm1.685-11.072l5.596 3.232-5.596 3.23v-6.462z"/><path class="st0" d="M76.787 14.358H12.4c-.935 0-1.688.756-1.688 1.688v6.749c0 .933.754 1.688 1.688 1.688h2.018v38.111c0 .932.754 1.688 1.688 1.688H43.02v9.968c-.998.586-1.697 1.623-1.697 2.864 0 1.866 1.518 3.382 3.383 3.382 1.873 0 3.381-1.516 3.381-3.382 0-1.243-.7-2.28-1.694-2.867v-9.965h26.922c.932 0 1.686-.756 1.686-1.688V24.482h1.789c.933 0 1.687-.756 1.687-1.688v-6.749c-.005-.931-.759-1.687-1.69-1.687zm-5.162 46.55H17.791V24.482h53.834v36.426zm3.474-39.799H14.084v-3.377H75.1l-.001 3.377z"/></svg>