<svg xmlns="http://www.w3.org/2000/svg" width="100" height="100"><path d="M44.528 76.121c-3.008 3.015-3.008 7.917.004 10.933a7.692 7.692 0 0 0 5.472 2.269c2.064 0 4.01-.808 5.463-2.269a7.657 7.657 0 0 0 2.271-5.465 7.68 7.68 0 0 0-2.267-5.468c-2.922-2.923-8.013-2.927-10.943 0zm8.553 8.548c-1.648 1.647-4.521 1.645-6.164 0a4.372 4.372 0 0 1-.004-6.164 4.354 4.354 0 0 1 3.091-1.275c1.161 0 2.257.451 3.082 1.275a4.336 4.336 0 0 1 1.277 3.08 4.33 4.33 0 0 1-1.282 3.084zM50 64.226a17.244 17.244 0 0 0-12.271 5.084 1.686 1.686 0 1 0 2.381 2.388c5.289-5.285 14.503-5.285 19.774 0a1.69 1.69 0 0 0 2.392-2.388A17.242 17.242 0 0 0 50 64.226z"/><path d="M50.004 53.181c-7.593 0-14.722 2.955-20.084 8.318a1.685 1.685 0 0 0 0 2.387 1.685 1.685 0 0 0 2.383 0c4.727-4.729 11.015-7.332 17.701-7.332 6.684 0 12.971 2.604 17.701 7.332a1.677 1.677 0 0 0 2.38 0c.66-.66.66-1.729 0-2.387-5.361-5.363-12.493-8.318-20.081-8.318z"/><path d="M77.809 53.775c-15.333-15.329-40.284-15.329-55.616 0a1.68 1.68 0 0 0 0 2.386 1.685 1.685 0 0 0 2.381 0c14.024-14.018 36.829-14.018 50.854 0 .329.329.757.493 1.189.493.434 0 .86-.164 1.19-.493a1.682 1.682 0 0 0 .002-2.386zm-48.618-26.62c-.79 0-1.444-.271-2.003-.831-.562-.562-.837-1.222-.837-2.009 0-.344-.134-.652-.37-.893-.483-.513-1.35-.501-1.815-.011a1.27 1.27 0 0 0-.379.9c0 1.479.533 2.768 1.582 3.826 1.059 1.047 2.346 1.578 3.822 1.578 1.482 0 2.771-.531 3.819-1.583 1.044-1.057 1.578-2.342 1.578-3.823 0-1.256-.4-2.39-1.184-3.367a5.259 5.259 0 0 0-2.375-1.706l3.09-6.706c.19-.412.162-.854-.083-1.232a1.224 1.224 0 0 0-1.073-.585h-7.896c-.351 0-.662.127-.903.368-.245.25-.379.566-.379.914 0 .354.138.67.371.892.242.256.559.393.912.393h5.905l-2.954 6.388c-.179.41-.149.831.097 1.233.25.377.621.573 1.074.573a2.74 2.74 0 0 1 2.012.828c.56.563.829 1.225.829 2.014 0 .795-.271 1.451-.826 2.007a2.741 2.741 0 0 1-2.014.832zm13.568 2.565c1.48 0 2.77-.529 3.817-1.583 1.045-1.057 1.579-2.342 1.579-3.821v-8.233c0-1.487-.533-2.774-1.579-3.823-1.049-1.051-2.336-1.581-3.817-1.581-1.479 0-2.767.53-3.828 1.581-1.045 1.049-1.578 2.336-1.578 3.823v8.232c0 1.479.533 2.767 1.583 3.825 1.057 1.049 2.344 1.58 3.823 1.58zm0-16.478c.787 0 1.447.271 2.011.831.559.557.828 1.213.828 2.009v8.233c0 .795-.271 1.451-.823 2.007a2.745 2.745 0 0 1-2.016.833 2.7 2.7 0 0 1-2.004-.831c-.562-.562-.838-1.222-.838-2.009v-8.233c0-.788.275-1.446.838-2.009a2.706 2.706 0 0 1 2.004-.831zm13.69 16.478c1.481 0 2.771-.529 3.817-1.583 1.045-1.057 1.578-2.342 1.578-3.821v-8.233c0-1.487-.533-2.774-1.578-3.823-1.049-1.051-2.336-1.581-3.817-1.581-1.479 0-2.766.53-3.828 1.581-1.044 1.049-1.576 2.336-1.576 3.823v8.232c0 1.479.532 2.767 1.583 3.825 1.058 1.049 2.344 1.58 3.821 1.58zm0-16.478a2.74 2.74 0 0 1 2.014.831c.557.557.826 1.213.826 2.009v8.233c0 .795-.271 1.451-.823 2.007a2.743 2.743 0 0 1-2.017.833 2.701 2.701 0 0 1-2.003-.831c-.562-.562-.838-1.222-.838-2.009v-8.233c0-.788.274-1.446.838-2.009.56-.558 1.212-.831 2.003-.831zm9.42 15.945c.26 0 .477-.092.658-.275a.864.864 0 0 0 .282-.655V22.1l2.938 4.874c.01 0 .01.003.01.01v.009c.009 0 .009.002.009.006l.009.009c.02.027.025.046.041.056 0 .006 0 .018.02.031.017.019.031.029.031.04.011.007.019.019.033.031.018.017.024.027.033.031.01.013.026.022.051.04.016.014.016.019.016.014.019.017.043.029.06.04l.009.009.01.008h.01a.189.189 0 0 0 .064.032c.008.01.018.016.008.016.02.007.035.015.061.022.034.012.042.013.034.009-.011 0 .008.002.032.006a.748.748 0 0 0 .199.04c.031.006.049.01.031.01h.018a.91.91 0 0 0 .386-.071l.042-.018.025-.015c.022-.011.049-.021.058-.032h.008l.008-.008s.011-.001.011-.009c.017-.01.041-.021.049-.031l.024-.022c.024-.018.041-.027.052-.04.006-.004.018-.017.031-.031.018-.015.024-.024.033-.031 0-.005.018-.02.034-.04l.022-.03c.008-.011.02-.027.033-.057l.01-.009.008-.006.009-.009v-.01l2.946-4.874v6.157c0 .259.092.479.269.655.19.187.407.275.666.275a.92.92 0 0 0 .667-.275.87.87 0 0 0 .268-.655v-9.512c0-.21-.06-.397-.184-.562a.971.971 0 0 0-.492-.34l-.311-.079s-.098.037-.299.109a.916.916 0 0 0-.448.388l-3.89 6.436-3.892-6.436a.968.968 0 0 0-.467-.388.963.963 0 0 0-.591-.031.952.952 0 0 0-.5.34.906.906 0 0 0-.185.562v9.512c0 .259.093.479.273.655a.888.888 0 0 0 .66.276z"/></svg>