<svg id="レイヤー_1" xmlns="http://www.w3.org/2000/svg" width="89.186" height="89.186"><style>.st0{fill:#040000}</style><path class="st0" d="M75.49 20.772H13.693c-2.262 0-4.104 1.841-4.104 4.107v39.2c0 2.261 1.842 4.103 4.104 4.103h2.79v1.375c0 .932.753 1.688 1.687 1.688s1.687-.757 1.687-1.688v-1.375H69.31v1.375c0 .932.754 1.688 1.686 1.688.935 0 1.688-.757 1.688-1.688v-1.375h2.807c2.264 0 4.104-1.842 4.104-4.103v-39.2c-.001-2.265-1.842-4.107-4.105-4.107zm.732 43.308c0 .396-.338.729-.732.729H13.693c-.396 0-.729-.332-.729-.729v-39.2c0-.396.334-.732.729-.732H75.49c.396 0 .732.337.732.732v39.2z"/><path class="st0" d="M53.427 29.479H18.535c-.932 0-1.687.758-1.687 1.691v25.127c0 .929.755 1.682 1.687 1.682h34.894c.934 0 1.686-.753 1.686-1.682V31.171c-.002-.934-.754-1.692-1.688-1.692zm-1.685 25.128h-31.52V32.852h31.52v21.755zM66.314 44.304c-3.769 0-6.836 3.068-6.836 6.838 0 3.771 3.067 6.837 6.836 6.837 3.77 0 6.834-3.064 6.834-6.837 0-3.768-3.065-6.838-6.834-6.838zm0 10.303c-1.91 0-3.465-1.555-3.465-3.465 0-1.907 1.555-3.466 3.465-3.466 1.907 0 3.461 1.559 3.461 3.466 0 1.91-1.554 3.465-3.461 3.465zM61.027 38.208h9.969c.935 0 1.688-.757 1.688-1.689v-5.756c0-.929-.754-1.684-1.688-1.684h-9.969c-.935 0-1.688.754-1.688 1.684v5.756c0 .932.754 1.689 1.688 1.689zm1.687-5.755h6.597v2.382h-6.597v-2.382z"/></svg>