<svg xmlns="http://www.w3.org/2000/svg" width="89.186" height="89.186"><path d="M84.958 51.573l-12.399-1.752c-1.31-1.221-2.914-4.407-4.229-7-1.637-3.247-2.727-5.307-3.906-6.344V18.651c0-.897-.727-1.626-1.627-1.626H10.124c-.897 0-1.627.729-1.627 1.626v50.003c0 .896.729 1.626 1.627 1.626h33.078c.164 2.15 1.914 3.864 4.104 3.864h13.42c4.688 0 10.131-2.744 11.592-3.529l12.455-.335c.879-.024 1.582-.745 1.582-1.626V53.182c-.001-.81-.594-1.497-1.397-1.609zm-27.715-7.421c1.129 1.99 1.73 4.798 1.9 6.031-.479.154-1.365.319-2.447.362H41.403c-2.301 0-4.172 1.871-4.172 4.17 0 1.726 1.053 3.208 2.551 3.844-.125.392-.189.811-.189 1.243 0 1.458.75 2.743 1.888 3.488a4.1358 4.1358 0 0 0-.318 1.596c0 .783.223 1.514.601 2.142H11.749V20.277h14.75V31.76c0 .627.357 1.196.924 1.469.562.265 1.234.189 1.724-.201l1.879-1.511 1.875 1.511c.594.478 1.445.479 2.039-.001l1.871-1.506 1.858 1.506c.601.483 1.457.48 2.047-.002l1.853-1.502 1.854 1.504c.298.238.658.361 1.023.361.238 0 .479-.053.699-.159.565-.27.928-.841.928-1.469V20.277h14.098v15.287c-1.614.107-3.02.919-3.862 2.365-1.091 1.864-1.113 4.366-.066 6.223zM29.751 20.277h14.07v8.075l-.234-.188c-.604-.483-1.457-.481-2.047.002l-1.852 1.502-1.855-1.504c-.594-.481-1.449-.481-2.043 0l-1.871 1.508-1.875-1.51c-.596-.477-1.444-.477-2.041 0l-.252.204v-8.089zM83.103 67.07l-11.269.302c-.27.008-.528.081-.764.213-.055.034-5.84 3.307-10.346 3.307h-13.42c-.507 0-.916-.413-.916-.919 0-.505.409-.915.916-.915h9.688c.898 0 1.625-.729 1.625-1.626 0-.898-.727-1.627-1.625-1.627h-11.66c-.508 0-.92-.411-.92-.917 0-.505.412-.916.92-.916H55.72c.897 0 1.627-.729 1.627-1.627 0-.896-.729-1.626-1.627-1.626H43.762c-.509 0-.916-.41-.916-.914 0-.507.407-.919.916-.919h10.461c.897 0 1.625-.728 1.625-1.626 0-.896-.728-1.626-1.625-1.626H41.404c-.506 0-.92-.411-.92-.917s.414-.918.92-.918h15.322v-.015c.024.001.045.003.063.005v.01c.058-.006.115 0 .172 0 .129.012.189-.006.281-.022 4.285-.261 5.201-1.801 5.201-3.07 0-1.131-.703-5.214-2.367-8.155-.477-.843-.461-2.124.041-2.98.475-.814 1.137-.814 1.357-.814.254 0 .534.049.733.099.695.441 2.213 3.444 3.217 5.435 1.724 3.413 3.507 6.942 5.494 8.393.218.158.465.262.729.297L83.1 54.603l.003 12.467z"/></svg>