<svg xmlns="http://www.w3.org/2000/svg" width="110" height="110"><path d="M68.869 20.827H29.424c-.934 0-1.686.756-1.686 1.688v66.268c0 .931.752 1.688 1.686 1.688h5.205v1.375a1.687 1.687 0 1 0 3.375 0V90.47h20.45v1.375a1.689 1.689 0 0 0 3.376 0V90.47h7.041c.935 0 1.688-.758 1.688-1.688V22.514a1.691 1.691 0 0 0-1.69-1.687zm-1.688 66.268H31.11V24.201h36.07v62.894z"/><path d="M49.146 57.006c7.291 0 13.225-5.931 13.225-13.22s-5.934-13.218-13.225-13.218c-7.289 0-13.222 5.931-13.222 13.22s5.932 13.218 13.222 13.218zm0-23.067c5.433 0 9.852 4.418 9.852 9.847 0 5.428-4.418 9.846-9.852 9.846-5.431 0-9.849-4.418-9.849-9.846s4.418-9.847 9.849-9.847z"/><path d="M49.146 47.048a3.265 3.265 0 0 0 3.267-3.261 3.266 3.266 0 0 0-6.53 0 3.265 3.265 0 0 0 3.263 3.261zm0 14.212c-5.097 0-9.242 4.146-9.242 9.242 0 5.099 4.146 9.242 9.242 9.242 5.101 0 9.246-4.146 9.246-9.242s-4.146-9.242-9.246-9.242zm0 15.112a5.88 5.88 0 0 1-5.871-5.87 5.881 5.881 0 0 1 5.871-5.87c3.235 0 5.873 2.635 5.873 5.87 0 3.236-2.638 5.87-5.873 5.87z"/><path d="M49.146 68.043c-1.354 0-2.461 1.103-2.461 2.459a2.462 2.462 0 0 0 4.922 0 2.463 2.463 0 0 0-2.461-2.459zm43.028-37.178V18.154a1.685 1.685 0 0 0-2.19-1.61l-10.18 3.196a1.69 1.69 0 0 0-1.185 1.609v9.14c-.229-.042-.44-.139-.684-.139a3.846 3.846 0 0 0-3.844 3.84 3.84 3.84 0 0 0 3.844 3.835c1.721 0 3.127-1.157 3.611-2.722.268-.298.441-.684.441-1.116v-9.93c.096-.014.19-.016.286-.045l6.522-2.047v5.386c-.131-.014-.241-.075-.377-.075a3.845 3.845 0 0 0-3.844 3.839 3.841 3.841 0 0 0 3.844 3.835 3.84 3.84 0 0 0 3.841-3.835c.008-.158-.062-.296-.085-.45z"/></svg>