<svg xmlns="http://www.w3.org/2000/svg" width="89.186" height="89.186"><path d="M12.741 16.665c2.422-1.303 6.424-1.882 9.355-1.882h.079c.515.002 1.02.029 1.522.059 4.152.275 8.185 1.577 11.463 3.277 3.896 2.165 6.733 5.114 7.59 7.854.32 1.024.974 1.375 1.608 1.375s1.288-.351 1.607-1.375c.856-2.739 3.693-5.688 7.591-7.854 3.277-1.7 7.311-3.001 11.463-3.277.504-.029 1.008-.057 1.521-.059h.08c2.933 0 6.935.579 9.355 1.882.791.424 1.778.13 2.205-.665.426-.791.129-1.775-.664-2.202-3.119-1.674-7.795-2.267-10.9-2.267h-.088c-8.725.03-18.873 4.831-22.172 10.018-3.299-5.187-13.447-9.986-22.172-10.018h-.088c-3.105 0-7.781.593-10.9 2.267-.793.427-1.09 1.411-.664 2.202.43.794 1.418 1.088 2.209.665z"/><path d="M80.166 20.491c-7.99-4.285-18.781-1.904-25.932 2.369-3.822 2.287-6.367 4.924-7.287 7.478h-5.168c-.92-2.553-3.465-5.189-7.287-7.478-7.15-4.273-17.941-6.654-25.932-2.369-.527.283-.855.835-.855 1.435v42.861c0 .571.299 1.103.791 1.396.488.298 1.101.306 1.605.039 6.856-3.69 16.356-1.509 22.719 2.293 3.59 2.146 5.45 6.263 6.187 8.06.359.875.883 1.081 1.526 1.081h7.661c.644 0 1.266-.425 1.526-1.081.717-1.805 2.597-5.913 6.187-8.06 6.361-3.802 15.861-5.983 22.719-2.293.506.267 1.117.259 1.605-.039.492-.293.791-.823.791-1.396V21.925c-.001-.599-.329-1.151-.856-1.434zM38.905 69.887c-.905-1.649-2.664-3.118-4.414-4.165-4.498-2.69-10.441-4.636-16.219-4.636-2.517 0-4.996.368-7.316 1.201V22.932c6.781-3.081 15.767-.927 21.863 2.718 3.697 2.214 6.086 4.868 6.086 7.517v36.72zm7.663 4.515h-4.411V33.589h4.411v40.813zm31.201-12.113c-2.32-.833-4.802-1.201-7.316-1.201-5.777 0-11.721 1.944-16.219 4.636-1.75 1.047-3.509 2.516-4.414 4.165V33.167c0-2.647 2.389-5.303 6.086-7.517 6.098-3.645 15.082-5.799 21.863-2.718v39.357z"/></svg>