<svg xmlns="http://www.w3.org/2000/svg" width="110" height="110"><path d="M95.531 60.988l-12.398-1.752c-1.311-1.221-2.914-4.406-4.229-7-1.639-3.247-2.729-5.307-3.906-6.344V28.066c0-.896-.729-1.626-1.627-1.626H20.698c-.897 0-1.627.729-1.627 1.626v50.003c0 .896.729 1.625 1.627 1.625h33.078c.164 2.15 1.915 3.865 4.104 3.865h13.421c4.688 0 10.131-2.744 11.592-3.529l12.455-.336a1.625 1.625 0 0 0 1.582-1.625V62.598a1.625 1.625 0 0 0-1.399-1.61zm-27.715-7.421c1.129 1.99 1.73 4.799 1.9 6.031-.48.153-1.365.318-2.447.361H51.977a4.176 4.176 0 0 0-4.172 4.17 4.18 4.18 0 0 0 2.552 3.844 4.162 4.162 0 0 0 1.699 4.731 4.14 4.14 0 0 0 .284 3.738H22.323v-46.75h14.75v11.483c0 .627.356 1.195.924 1.469a1.648 1.648 0 0 0 1.724-.201l1.879-1.511 1.875 1.511a1.625 1.625 0 0 0 2.039-.001l1.871-1.506 1.858 1.506a1.63 1.63 0 0 0 2.047-.002l1.853-1.502 1.854 1.504c.298.238.659.361 1.022.361a1.63 1.63 0 0 0 1.629-1.628V29.692h14.097v15.287c-1.613.106-3.02.919-3.861 2.365-1.093 1.864-1.114 4.366-.068 6.223zM40.325 29.692h14.069v8.075l-.233-.188a1.63 1.63 0 0 0-2.047.002l-1.853 1.502-1.854-1.504a1.63 1.63 0 0 0-2.043 0l-1.871 1.508-1.875-1.51a1.632 1.632 0 0 0-2.041 0l-.252.204v-8.089zm53.353 46.793l-11.27.303a1.67 1.67 0 0 0-.766.213c-.055.034-5.84 3.307-10.346 3.307h-13.42a.917.917 0 0 1 0-1.834h9.688a1.626 1.626 0 0 0 0-3.252H55.905a.92.92 0 0 1-.92-.918.92.92 0 0 1 .92-.916h10.39c.896 0 1.627-.729 1.627-1.627 0-.896-.73-1.625-1.627-1.625H54.336a.916.916 0 1 1 0-1.834h10.461a1.626 1.626 0 0 0 0-3.252H51.978a.92.92 0 0 1-.92-.916c0-.507.414-.919.92-.919h15.323V63.2a.868.868 0 0 1 .062.005v.01c.059-.006.113 0 .172 0 .129.013.188-.006.281-.021 4.283-.261 5.199-1.801 5.199-3.069 0-1.131-.701-5.214-2.365-8.154-.479-.844-.461-2.124.041-2.98.475-.812 1.137-.812 1.355-.812.254 0 .533.049.732.099.695.441 2.213 3.444 3.217 5.436 1.725 3.413 3.508 6.941 5.494 8.394.219.158.465.262.73.297l11.453 1.617.006 12.463z"/></svg>