<svg xmlns="http://www.w3.org/2000/svg" width="110" height="110"><path d="M23.378 29.072c2.422-1.305 6.424-1.882 9.354-1.882h.079c.515.002 1.02.027 1.521.059 4.152.275 8.186 1.577 11.464 3.277 3.896 2.165 6.732 5.112 7.59 7.854.319 1.024.974 1.375 1.607 1.375.635 0 1.289-.351 1.606-1.375.855-2.739 3.693-5.688 7.592-7.854 3.276-1.7 7.312-3.001 11.463-3.277a28.345 28.345 0 0 1 1.521-.059h.08c2.934 0 6.936.577 9.354 1.882a1.629 1.629 0 0 0 1.541-2.867c-3.118-1.674-7.795-2.269-10.899-2.269h-.088c-8.726.03-18.873 4.831-22.172 10.02-3.299-5.188-13.446-9.986-22.172-10.02h-.088c-3.104 0-7.781.595-10.9 2.269a1.623 1.623 0 0 0-.663 2.202 1.637 1.637 0 0 0 2.21.665z"/><path d="M90.803 32.898c-7.99-4.285-18.781-1.904-25.934 2.367-3.82 2.287-6.365 4.926-7.287 7.479h-5.167c-.92-2.553-3.465-5.189-7.286-7.479-7.15-4.271-17.941-6.652-25.933-2.367a1.626 1.626 0 0 0-.854 1.435v42.86a1.63 1.63 0 0 0 2.395 1.435c6.856-3.691 16.356-1.51 22.719 2.293 3.591 2.146 5.45 6.262 6.188 8.061.359.875.883 1.08 1.526 1.08h7.66c.645 0 1.268-.426 1.525-1.08.717-1.807 2.598-5.912 6.188-8.061 6.359-3.803 15.859-5.984 22.719-2.293a1.629 1.629 0 0 0 2.395-1.435V34.332a1.624 1.624 0 0 0-.854-1.434zM49.542 82.294c-.904-1.647-2.663-3.116-4.413-4.164-4.498-2.69-10.441-4.637-16.22-4.637-2.517 0-4.996.368-7.315 1.2V35.339c6.78-3.081 15.767-.927 21.862 2.718 3.697 2.214 6.086 4.868 6.086 7.519v36.718zm7.663 4.517h-4.41V45.996h4.41v40.815zm31.201-12.116c-2.319-.832-4.803-1.2-7.315-1.2-5.776 0-11.722 1.942-16.22 4.637-1.75 1.048-3.51 2.517-4.414 4.164V45.574c0-2.646 2.391-5.305 6.086-7.519 6.1-3.645 15.082-5.799 21.863-2.718v39.358z"/></svg>