<svg xmlns="http://www.w3.org/2000/svg" width="89.186" height="89.186"><g fill="#040000"><path d="M64.315 8.24H24.871c-.932 0-1.686.752-1.686 1.686v66.273c0 .929.754 1.683 1.686 1.683h5.205v1.374a1.69 1.69 0 0 0 1.687 1.691 1.69 1.69 0 0 0 1.688-1.691v-1.374h20.45v1.374a1.69 1.69 0 0 0 1.686 1.691 1.69 1.69 0 0 0 1.688-1.691v-1.374h7.041c.932 0 1.686-.754 1.686-1.683V9.925a1.686 1.686 0 0 0-1.687-1.685zm-1.688 3.373v23.939h-36.07V11.613h36.07zm-36.07 62.894V38.925h36.07v35.582h-36.07z"/><path d="M32.425 30.221c.934 0 1.688-.755 1.688-1.688v-9.306c0-.934-.754-1.686-1.688-1.686s-1.688.752-1.688 1.686v9.306a1.687 1.687 0 0 0 1.688 1.688zM32.425 47.116c-.934 0-1.688.758-1.688 1.686v9.307c0 .93.754 1.684 1.688 1.684s1.688-.754 1.688-1.684v-9.307c0-.928-.754-1.686-1.688-1.686z"/></g></svg>