<svg id="レイヤー_1" xmlns="http://www.w3.org/2000/svg" width="89.186" height="89.186"><style>.st0{fill:#040000}</style><path class="st0" d="M77.724 9.772H11.459c-.932 0-1.686.755-1.686 1.687v66.268c0 .931.754 1.687 1.686 1.687h66.266c.934 0 1.687-.756 1.687-1.687V11.458c-.001-.931-.754-1.686-1.688-1.686zM76.037 76.04h-62.89V13.146h62.89V76.04z"/><path class="st0" d="M19.643 70.109h49.894c.935 0 1.688-.756 1.688-1.688V20.76c0-.931-.754-1.687-1.688-1.687H19.643c-.934 0-1.687.756-1.687 1.687v47.661c.002.933.754 1.688 1.687 1.688zm1.687-47.661h46.521v44.288H21.33V22.448z"/><path class="st0" d="M33.064 35.784c-4.967 0-9.01 4.041-9.01 9.011 0 4.971 4.043 9.014 9.01 9.014 4.973 0 9.016-4.043 9.016-9.014 0-4.97-4.043-9.011-9.016-9.011zm0 14.652c-3.111 0-5.64-2.53-5.64-5.642 0-3.107 2.527-5.638 5.64-5.638 3.109 0 5.643 2.53 5.643 5.638 0 3.112-2.533 5.642-5.643 5.642z"/><circle class="st0" cx="33.064" cy="44.797" r="3.307"/></svg>