<svg id="レイヤー_1" xmlns="http://www.w3.org/2000/svg" width="89.186" height="89.186"><style>.st0{fill:#040000}</style><path class="st0" d="M79.724 21.712h-11.55v-5.887c0-.075-.031-.144-.04-.218-.013-.074-.024-.139-.042-.209-.078-.285-.199-.555-.411-.768L57.038 3.992c-.213-.211-.479-.332-.759-.408-.08-.021-.146-.034-.225-.044-.07-.008-.138-.042-.208-.042H22.691c-.934 0-1.688.756-1.688 1.688v16.527H9.46c-.933 0-1.686.756-1.686 1.688v39.92c0 .931.753 1.687 1.686 1.687h7.913c.933 0 1.688-.756 1.688-1.687s-.754-1.688-1.688-1.688h-6.227V25.085H78.037v36.547h-5.413c-.934 0-1.688.757-1.688 1.688s.754 1.687 1.688 1.687h7.101c.933 0 1.686-.756 1.686-1.687V23.4c-.001-.932-.754-1.688-1.687-1.688zM57.533 9.257l2.44 2.442 2.443 2.44h-4.885l.002-4.882zM24.377 21.712V6.871h29.782v8.955c0 .931.753 1.688 1.688 1.688h8.958v4.199l-40.428-.001z"/><path class="st0" d="M65.178 45.302H24.006c-.933 0-1.687.757-1.687 1.688V84c0 .932.754 1.688 1.687 1.688h41.173c.932 0 1.686-.756 1.686-1.688V46.989c-.001-.931-.755-1.687-1.687-1.687zm-1.687 3.373v3.791H25.693v-3.791h37.798zM25.693 82.314V55.839h37.798v26.476H25.693zM62.134 34.448c0-.931-.754-1.688-1.688-1.688H20.288c-.933 0-1.686.757-1.686 1.688 0 .932.753 1.688 1.686 1.688h40.159c.933-.001 1.687-.757 1.687-1.688z"/><circle class="st0" cx="69.917" cy="34.45" r="2.841"/><path class="st0" d="M46.26 59.163c-.523-1.266-2.599-1.266-3.123 0l-7.199 17.504c-.354.862.058 1.848.92 2.201.86.364 1.845-.057 2.202-.919l2.083-5.065h7.111l2.083 5.065c.271.652.899 1.046 1.562 1.046.211 0 .432-.039.64-.127.863-.354 1.275-1.339.92-2.201L46.26 59.163zM42.533 69.51l2.166-5.271 2.166 5.271h-4.332z"/></svg>