<svg id="レイヤー_1" xmlns="http://www.w3.org/2000/svg" width="89.186" height="89.186"><style>.st0{fill:#040000}</style><path class="st0" d="M77.864 34.295H11.321c-.933 0-1.688-.76-1.688-1.69 0-11.621 15.354-20.731 34.959-20.731s34.957 9.11 34.957 20.731c.001.931-.752 1.69-1.685 1.69zm-64.706-3.374h62.87c-1.545-8.785-15.054-15.676-31.436-15.676-16.382.001-29.89 6.89-31.434 15.676zM77.198 56.868h-65.21c-2.658 0-4.819-2.315-4.819-5.159 0-2.849 2.161-5.163 4.819-5.163h65.21c2.657 0 4.818 2.314 4.818 5.163 0 2.843-2.161 5.159-4.818 5.159zm-65.21-6.95c-.784 0-1.445.815-1.445 1.79 0 .967.661 1.787 1.445 1.787h65.21c.797 0 1.445-.804 1.445-1.787 0-.99-.648-1.79-1.445-1.79h-65.21zM71.967 75.328h-55.35c-4.851 0-7.025-4.135-7.025-8.237 0-3.205 2.612-5.816 5.817-5.816h58.366c3.21 0 5.825 2.611 5.825 5.816.001 3.969-2.389 8.237-7.633 8.237zM15.41 64.645c-1.348 0-2.444 1.098-2.444 2.444 0 1.143.264 4.864 3.652 4.864h55.35c4.058 0 4.262-4.047 4.262-4.864 0-1.348-1.1-2.444-2.452-2.444H15.41zM80.772 43.43c-2.199 0-3.411-.888-4.294-1.532-.754-.555-1.208-.889-2.308-.889-1.099 0-1.554.334-2.308.889-.883.646-2.095 1.532-4.293 1.532-2.197 0-3.41-.892-4.294-1.536-.75-.551-1.199-.885-2.294-.885-1.091 0-1.54.334-2.291.885-.882.646-2.09 1.536-4.285 1.536-2.198 0-3.409-.892-4.292-1.536-.749-.551-1.199-.885-2.291-.885-1.091 0-1.54.334-2.29.885-.884.646-2.09 1.536-4.289 1.536-2.194 0-3.401-.892-4.28-1.541-.746-.546-1.195-.88-2.286-.88-1.087 0-1.541.33-2.286.88-.883.649-2.091 1.541-4.288 1.541-2.195 0-3.402-.892-4.285-1.541-.741-.55-1.192-.88-2.274-.88s-1.531.33-2.272.88c-.883.649-2.087 1.541-4.28 1.541-2.195 0-3.403-.892-4.285-1.536-.749-.551-1.199-.885-2.29-.885-.934 0-1.688-.753-1.688-1.687 0-.932.754-1.686 1.688-1.686 2.199 0 3.406.886 4.288 1.535.746.551 1.2.884 2.287.884 1.083 0 1.532-.333 2.272-.884.884-.649 2.087-1.535 4.28-1.535 2.195 0 3.399.886 4.278 1.535.744.551 1.194.884 2.281.884 1.091 0 1.541-.333 2.29-.884.882-.649 2.091-1.535 4.284-1.535 2.198 0 3.406.886 4.284 1.535.746.551 1.195.884 2.282.884 1.092 0 1.541-.333 2.29-.884.884-.649 2.091-1.535 4.289-1.535s3.407.886 4.289 1.535c.75.551 1.199.884 2.294.884 1.088 0 1.541-.333 2.288-.884.882-.649 2.09-1.535 4.288-1.535 2.199 0 3.411.886 4.294 1.535.749.551 1.199.884 2.294.884s1.549-.333 2.299-.884c.887-.649 2.098-1.535 4.302-1.535 2.203 0 3.414.886 4.303 1.535.75.551 1.201.884 2.299.884.932 0 1.686.759 1.686 1.687 0 .93-.754 1.688-1.686 1.688z"/><path class="st0" d="M30.902 22.915c0 1.072-.867 1.938-1.938 1.938-1.068 0-1.937-.865-1.937-1.938 0-1.064.867-1.932 1.937-1.932 1.071 0 1.938.866 1.938 1.932zM46.53 22.915c0 1.072-.866 1.938-1.938 1.938-1.065 0-1.932-.865-1.932-1.938 0-1.064.865-1.932 1.932-1.932 1.072 0 1.938.866 1.938 1.932zM62.149 22.915c0 1.072-.866 1.938-1.934 1.938-1.064 0-1.932-.865-1.932-1.938 0-1.064.866-1.932 1.932-1.932 1.068 0 1.934.866 1.934 1.932zM54.037 19.049c0 1.067-.866 1.935-1.932 1.935-1.07 0-1.938-.866-1.938-1.935s.866-1.937 1.938-1.937c1.065.001 1.932.867 1.932 1.937z"/><circle class="st0" cx="37.084" cy="19.049" r="1.937"/><path class="st0" d="M54.037 26.79c0 1.065-.866 1.934-1.932 1.934-1.07 0-1.938-.867-1.938-1.934 0-1.071.866-1.938 1.938-1.938 1.065 0 1.932.866 1.932 1.938zM39.021 26.79c0 1.065-.866 1.934-1.938 1.934-1.07 0-1.937-.867-1.937-1.934 0-1.071.866-1.938 1.937-1.938 1.072 0 1.938.866 1.938 1.938z"/></svg>