<svg xmlns="http://www.w3.org/2000/svg" width="110" height="110"><path d="M88.269 45.693H21.726a1.69 1.69 0 0 1-1.688-1.69c0-11.621 15.354-20.73 34.959-20.73 19.604 0 34.957 9.109 34.957 20.73a1.686 1.686 0 0 1-1.685 1.69zm-64.706-3.374h62.869c-1.545-8.785-15.055-15.676-31.437-15.676-16.38.002-29.888 6.891-31.432 15.676zm64.04 25.948h-65.21c-2.656 0-4.817-2.315-4.817-5.159 0-2.85 2.161-5.163 4.817-5.163h65.21c2.658 0 4.818 2.313 4.818 5.163 0 2.843-2.16 5.159-4.818 5.159zm-65.21-6.951c-.782 0-1.443.814-1.443 1.79 0 .967.661 1.787 1.443 1.787h65.21c.799 0 1.445-.806 1.445-1.787 0-.989-.646-1.79-1.445-1.79h-65.21zm59.979 25.411h-55.35c-4.853 0-7.025-4.137-7.025-8.237a5.826 5.826 0 0 1 5.817-5.815h58.364c3.211 0 5.826 2.611 5.826 5.815.003 3.969-2.388 8.237-7.632 8.237zM25.815 76.043c-1.35 0-2.444 1.1-2.444 2.444 0 1.144.264 4.864 3.652 4.864h55.35c4.058 0 4.263-4.049 4.263-4.864a2.45 2.45 0 0 0-2.453-2.444H25.815zm65.362-21.214c-2.197 0-3.41-.888-4.293-1.532-.754-.555-1.209-.889-2.309-.889s-1.554.334-2.309.889c-.883.646-2.096 1.532-4.293 1.532-2.196 0-3.409-.892-4.295-1.536-.75-.551-1.197-.885-2.293-.885-1.092 0-1.541.334-2.291.885-.883.646-2.09 1.536-4.286 1.536s-3.407-.892-4.292-1.536c-.749-.551-1.197-.885-2.291-.885-1.091 0-1.538.334-2.288.885-.886.646-2.092 1.536-4.289 1.536-2.194 0-3.401-.892-4.28-1.541-.746-.546-1.195-.88-2.286-.88-1.087 0-1.541.33-2.286.88-.883.649-2.091 1.541-4.288 1.541-2.193 0-3.4-.892-4.285-1.541-.739-.55-1.19-.88-2.272-.88s-1.531.33-2.272.88c-.883.649-2.087 1.541-4.278 1.541-2.195 0-3.403-.892-4.285-1.536-.749-.551-1.199-.885-2.29-.885a1.684 1.684 0 0 1-1.688-1.688c0-.932.754-1.686 1.688-1.686 2.199 0 3.406.886 4.288 1.535.746.551 1.199.884 2.287.884 1.083 0 1.53-.333 2.271-.884.884-.649 2.087-1.535 4.28-1.535s3.397.886 4.276 1.535c.744.551 1.194.884 2.281.884 1.091 0 1.541-.333 2.29-.884.882-.649 2.091-1.535 4.284-1.535 2.198 0 3.406.886 4.284 1.535.746.551 1.193.884 2.282.884 1.092 0 1.541-.333 2.29-.884.884-.649 2.091-1.535 4.287-1.535 2.198 0 3.407.886 4.289 1.535.75.551 1.199.884 2.294.884 1.09 0 1.542-.333 2.288-.884.884-.649 2.092-1.535 4.289-1.535 2.199 0 3.41.886 4.293 1.535.75.551 1.199.884 2.295.884s1.55-.333 2.3-.884c.887-.649 2.098-1.535 4.302-1.535 2.203 0 3.414.886 4.303 1.535.75.551 1.201.884 2.299.884.934 0 1.688.759 1.688 1.688a1.693 1.693 0 0 1-1.689 1.688z"/><path d="M41.307 34.313a1.938 1.938 0 1 1-3.876 0 1.937 1.937 0 0 1 3.876 0zm15.628 0a1.935 1.935 0 1 1-3.87.006 1.935 1.935 0 0 1 3.87-.006zm15.619 0a1.934 1.934 0 0 1-1.934 1.938 1.935 1.935 0 0 1 0-3.871 1.936 1.936 0 0 1 1.934 1.933zm-8.112-3.866a1.936 1.936 0 1 1-3.871-.001 1.936 1.936 0 0 1 3.871.001z"/><circle cx="47.489" cy="30.447" r="1.937"/><path d="M64.442 38.188a1.937 1.937 0 1 1-3.873-.005 1.937 1.937 0 0 1 3.873.005zm-15.016 0a1.938 1.938 0 0 1-3.876 0c0-1.071.866-1.938 1.938-1.938s1.938.867 1.938 1.938z"/></svg>