<svg xmlns="http://www.w3.org/2000/svg" width="89.186" height="89.186"><path d="M39.311 72.126c-17.293 0-27.211-13.474-27.211-36.971 0-.93.75-1.68 1.682-1.68h57.277c4.393 0 6.627 2.61 6.627 7.762 0 12.934-12.734 17.106-16.246 18.013-4.574 8.361-12.113 12.876-22.129 12.876zM15.487 36.841c.271 10.806 3.422 31.92 23.824 31.92 20.405 0 23.559-21.114 23.834-31.92H15.487zm51.023 0c-.147 7.107-1.231 13.244-3.186 18.316 4.254-1.595 10.994-5.454 10.994-13.92 0-3.716-1.098-4.396-3.26-4.396H66.51zM23.766 29.764c-.336 0-.672-.101-.968-.311-.762-.532-.942-1.582-.407-2.342l1.969-2.793c.553-.792.297-1.991-.562-2.629l-.967-.721c-2.278-1.685-3.146-4.738-1.963-6.944l1.414-2.646c.439-.819 1.463-1.129 2.275-.687.817.434 1.131 1.458.688 2.276l-1.416 2.646c-.346.647.01 1.919 1.006 2.654l.97.722c2.323 1.728 2.909 4.989 1.303 7.27l-1.969 2.792c-.322.464-.846.713-1.373.713zM37.069 29.764c-.336 0-.678-.101-.969-.311-.759-.534-.941-1.584-.406-2.344l1.971-2.791c.551-.792.295-1.991-.565-2.626l-.966-.725c-2.282-1.695-3.147-4.741-1.967-6.944l1.422-2.647c.447-.816 1.466-1.127 2.279-.684.816.438 1.125 1.462.684 2.279l-1.418 2.643c-.348.643.011 1.919 1.003 2.658l.969.718c2.324 1.72 2.916 4.98 1.309 7.262l-1.967 2.803c-.332.46-.85.709-1.379.709zM50.375 29.764c-.334 0-.674-.101-.965-.311-.762-.532-.943-1.582-.41-2.342l1.972-2.793c.551-.792.293-1.991-.564-2.626l-.971-.725c-2.279-1.688-3.144-4.738-1.965-6.944l1.424-2.647c.449-.816 1.465-1.127 2.276-.684.818.438 1.127 1.462.687 2.279l-1.418 2.643c-.346.647.014 1.919 1.004 2.654l.971.722c2.324 1.72 2.912 4.98 1.306 7.262l-1.968 2.799c-.328.464-.849.713-1.379.713zM69.557 78.694H13.18c-.931 0-1.683-.75-1.683-1.68 0-.932.752-1.684 1.683-1.684h56.377c.932 0 1.682.752 1.682 1.684 0 .931-.75 1.68-1.682 1.68z"/></svg>