<svg xmlns="http://www.w3.org/2000/svg" width="110" height="110"><g fill="#040000"><path d="M74.721 19.646H35.277c-.933 0-1.687.753-1.687 1.688v66.271c0 .93.754 1.684 1.687 1.684h5.205v1.374a1.689 1.689 0 1 0 3.376 0v-1.374h20.449v1.374a1.69 1.69 0 0 0 1.688 1.69 1.69 1.69 0 0 0 1.688-1.69v-1.374h7.041c.934 0 1.688-.754 1.688-1.684V21.331a1.692 1.692 0 0 0-1.691-1.685zm-1.688 3.374v23.939H36.964V23.02h36.069zM36.964 85.913V50.331h36.069v35.582H36.964z"/><path d="M42.831 41.628c.935 0 1.688-.756 1.688-1.688v-9.307c0-.935-.754-1.687-1.688-1.687s-1.688.752-1.688 1.687v9.307a1.69 1.69 0 0 0 1.688 1.688c-.001 0-.001 0 0 0zm0 16.893c-.934 0-1.688.758-1.688 1.688v9.307c0 .932.755 1.687 1.688 1.687.934 0 1.688-.755 1.688-1.687v-9.307a1.687 1.687 0 0 0-1.688-1.688z"/></g></svg>