<svg xmlns="http://www.w3.org/2000/svg" width="110" height="110"><path d="M49.72 82.535c-17.293 0-27.211-13.476-27.211-36.972 0-.93.75-1.68 1.683-1.68h57.275c4.395 0 6.627 2.61 6.627 7.762 0 12.935-12.732 17.106-16.246 18.014-4.573 8.362-12.112 12.876-22.128 12.876zM25.896 47.25c.271 10.807 3.423 31.921 23.824 31.921 20.405 0 23.56-21.114 23.833-31.921H25.896zm51.022 0c-.146 7.106-1.23 13.244-3.186 18.315 4.254-1.595 10.992-5.453 10.992-13.92 0-3.716-1.098-4.396-3.26-4.396l-4.546.001zm-42.743-7.077c-.336 0-.672-.101-.968-.311a1.678 1.678 0 0 1-.407-2.343l1.969-2.793c.554-.792.298-1.99-.562-2.629l-.967-.721c-2.278-1.685-3.146-4.738-1.963-6.944l1.414-2.646a1.678 1.678 0 0 1 2.274-.688 1.678 1.678 0 0 1 .688 2.276l-1.416 2.646c-.347.647.01 1.919 1.006 2.654l.97.722c2.323 1.729 2.909 4.989 1.303 7.271l-1.969 2.792a1.666 1.666 0 0 1-1.372.714zm13.303 0c-.336 0-.678-.101-.969-.311a1.684 1.684 0 0 1-.406-2.345l1.972-2.791c.551-.792.295-1.99-.565-2.626l-.966-.725c-2.282-1.695-3.147-4.741-1.967-6.944l1.422-2.646a1.686 1.686 0 0 1 2.279-.685 1.684 1.684 0 0 1 .684 2.279l-1.418 2.643c-.348.644.011 1.92 1.003 2.658l.969.718c2.324 1.721 2.916 4.98 1.31 7.263l-1.967 2.803c-.334.46-.852.709-1.381.709zm13.305 0c-.334 0-.674-.101-.965-.311a1.68 1.68 0 0 1-.41-2.343l1.973-2.793c.551-.792.293-1.99-.562-2.626l-.973-.725c-2.277-1.688-3.145-4.738-1.965-6.944l1.424-2.646c.449-.816 1.465-1.127 2.275-.685a1.685 1.685 0 0 1 .688 2.279l-1.418 2.643c-.346.647.016 1.92 1.004 2.654l.973.722c2.324 1.721 2.912 4.98 1.306 7.263l-1.968 2.799a1.695 1.695 0 0 1-1.382.713zm19.182 48.93H23.589a1.681 1.681 0 1 1 0-3.364h56.376c.932 0 1.682.752 1.682 1.684s-.751 1.68-1.682 1.68z"/></svg>