<svg xmlns="http://www.w3.org/2000/svg" width="110" height="110"><path d="M88.132 20.178H21.866c-.933 0-1.687.755-1.687 1.688v66.269c0 .932.754 1.688 1.687 1.688h66.266c.936 0 1.688-.756 1.688-1.688V21.864a1.688 1.688 0 0 0-1.688-1.686zm-1.688 66.268h-62.89V23.552h62.891l-.001 62.894z"/><path d="M30.051 80.516h49.895c.935 0 1.688-.756 1.688-1.688V31.166c0-.931-.754-1.688-1.688-1.688H30.051c-.935 0-1.688.758-1.688 1.688v47.661a1.689 1.689 0 0 0 1.688 1.689zm1.686-47.662h46.521v44.289H31.737V32.854z"/><path d="M43.472 46.19c-4.967 0-9.01 4.041-9.01 9.011 0 4.971 4.043 9.014 9.01 9.014 4.974 0 9.017-4.043 9.017-9.014-.002-4.97-4.045-9.011-9.017-9.011zm0 14.652a5.648 5.648 0 0 1-5.641-5.642 5.646 5.646 0 0 1 5.641-5.64c3.108 0 5.644 2.53 5.644 5.64a5.652 5.652 0 0 1-5.644 5.642z"/><circle cx="43.472" cy="55.203" r="3.307"/></svg>