<svg xmlns="http://www.w3.org/2000/svg" width="110" height="110"><path d="M85.896 29.764H24.1a4.11 4.11 0 0 0-4.104 4.106v39.2a4.11 4.11 0 0 0 4.104 4.103h2.79v1.375a1.686 1.686 0 1 0 3.375 0v-1.375h49.452v1.375a1.687 1.687 0 1 0 3.376 0v-1.375H85.9a4.108 4.108 0 0 0 4.104-4.103v-39.2a4.114 4.114 0 0 0-4.108-4.106zm.733 43.307a.741.741 0 0 1-.73.729H24.1a.737.737 0 0 1-.729-.729v-39.2a.74.74 0 0 1 .729-.731h61.797c.396 0 .73.337.73.731v39.2h.002z"/><path d="M63.834 38.471H28.942a1.69 1.69 0 0 0-1.688 1.69v25.127c0 .93.755 1.682 1.688 1.682h34.894c.934 0 1.688-.752 1.688-1.682V40.162a1.693 1.693 0 0 0-1.69-1.691zm-1.686 25.128h-31.52V41.844H62.15v21.755h-.002zm14.573-10.303c-3.77 0-6.836 3.067-6.836 6.838s3.066 6.836 6.836 6.836a6.838 6.838 0 0 0 6.834-6.836c0-3.769-3.065-6.838-6.834-6.838zm0 10.303a3.47 3.47 0 0 1-3.465-3.465 3.472 3.472 0 0 1 3.465-3.466 3.472 3.472 0 0 1 3.461 3.466 3.469 3.469 0 0 1-3.461 3.465zm-5.287-16.4h9.971c.934 0 1.688-.757 1.688-1.688v-5.756c0-.93-.754-1.685-1.688-1.685h-9.971c-.936 0-1.688.754-1.688 1.685v5.756c0 .931.754 1.688 1.688 1.688zm1.687-5.755h6.596v2.382h-6.596v-2.382z"/></svg>