<svg id="レイヤー_1" xmlns="http://www.w3.org/2000/svg" width="89.186" height="89.186"><style>.st0{fill:#040000}</style><path class="st0" d="M40.016 71.007c-3.008 3.014-3.008 7.917.004 10.932 1.461 1.462 3.405 2.268 5.471 2.268s4.01-.806 5.463-2.268c1.466-1.459 2.271-3.401 2.271-5.465 0-2.065-.805-4.008-2.266-5.467-2.922-2.923-8.012-2.927-10.943 0zm8.554 8.547c-1.65 1.648-4.523 1.645-6.164 0-1.698-1.701-1.698-4.464-.004-6.163.824-.822 1.925-1.276 3.09-1.276 1.163 0 2.257.452 3.082 1.276.824.824 1.279 1.918 1.279 3.08-.001 1.164-.456 2.257-1.283 3.083zM45.488 59.112c-4.635 0-8.995 1.805-12.272 5.084-.661.66-.661 1.726 0 2.386.329.329.759.493 1.191.493.432 0 .861-.165 1.191-.493 5.289-5.285 14.504-5.285 19.774 0 .666.658 1.729.658 2.386 0 .663-.658.663-1.726.006-2.386-3.277-3.279-7.637-5.084-12.276-5.084z"/><path class="st0" d="M45.492 48.067c-7.592 0-14.721 2.955-20.084 8.317-.661.66-.661 1.729 0 2.387.66.659 1.725.659 2.383 0 4.727-4.729 11.015-7.331 17.701-7.331 6.684 0 12.971 2.602 17.702 7.331.33.33.759.494 1.192.494s.861-.164 1.189-.494c.662-.66.662-1.729 0-2.387-5.363-5.363-12.495-8.317-20.083-8.317z"/><path class="st0" d="M73.297 48.661c-15.333-15.329-40.284-15.329-55.616 0-.663.658-.663 1.727 0 2.386.657.657 1.724.657 2.381 0 14.024-14.016 36.829-14.016 50.854 0 .329.329.757.493 1.191.493.433 0 .86-.164 1.19-.493.661-.662.661-1.729 0-2.386zM24.679 22.041c-.79 0-1.444-.271-2.003-.831-.562-.562-.837-1.22-.837-2.009 0-.342-.134-.652-.37-.891-.483-.513-1.35-.501-1.815-.011-.246.25-.379.561-.379.901 0 1.48.533 2.767 1.582 3.827 1.058 1.047 2.345 1.578 3.822 1.578 1.482 0 2.771-.531 3.819-1.583 1.044-1.057 1.578-2.342 1.578-3.823 0-1.256-.4-2.39-1.183-3.369-.643-.801-1.441-1.374-2.375-1.706l3.09-6.706c.19-.412.162-.854-.083-1.232-.236-.378-.62-.586-1.074-.586h-7.895c-.351 0-.662.127-.903.368-.246.25-.379.566-.379.914 0 .354.137.67.371.892.242.256.558.391.912.391h5.905l-2.954 6.388c-.179.41-.149.831.097 1.233.25.377.621.575 1.074.575.787 0 1.449.271 2.012.828.559.563.829 1.223.829 2.012 0 .795-.271 1.453-.826 2.007-.565.56-1.227.833-2.015.833zM38.247 24.606c1.481 0 2.77-.531 3.818-1.583 1.045-1.057 1.579-2.342 1.579-3.823v-8.233c0-1.487-.533-2.774-1.579-3.823-1.049-1.051-2.336-1.581-3.818-1.581-1.479 0-2.766.53-3.828 1.581-1.045 1.049-1.578 2.336-1.578 3.823V19.2c0 1.48.533 2.767 1.583 3.827 1.057 1.048 2.344 1.579 3.823 1.579zm0-16.478c.787 0 1.448.273 2.011.831.559.557.828 1.213.828 2.009v8.233c0 .795-.271 1.453-.823 2.007-.567.561-1.229.833-2.016.833-.792 0-1.445-.271-2.004-.831-.562-.562-.837-1.22-.837-2.009v-8.233c0-.788.275-1.446.837-2.009.559-.558 1.212-.831 2.004-.831zM51.938 24.606c1.481 0 2.769-.531 3.817-1.583 1.045-1.057 1.578-2.342 1.578-3.823v-8.233c0-1.487-.533-2.774-1.578-3.823-1.049-1.051-2.336-1.581-3.817-1.581-1.479 0-2.766.53-3.828 1.581-1.044 1.049-1.578 2.336-1.578 3.823V19.2c0 1.48.534 2.767 1.583 3.827 1.059 1.048 2.345 1.579 3.823 1.579zm0-16.478c.787 0 1.449.273 2.012.831.557.557.827 1.213.827 2.009v8.233c0 .795-.271 1.453-.824 2.007-.565.561-1.228.833-2.015.833-.792 0-1.445-.271-2.003-.831-.562-.562-.838-1.22-.838-2.009v-8.233c0-.788.274-1.446.838-2.009.559-.558 1.211-.831 2.003-.831zM61.358 24.073c.258 0 .475-.092.657-.277.19-.179.283-.396.283-.655v-6.157l2.94 4.874c.008 0 .008.003.008.008v.009c.009 0 .009.002.009.006l.009.009c.018.027.025.046.041.056 0 .004 0 .016.018.031.017.017.033.029.033.04.009.007.017.017.033.031.017.017.024.027.033.031.009.013.026.024.05.04.017.016.017.022.017.016.017.017.042.029.058.04l.009.009.009.008h.009c.017.011.033.021.066.032.008.01.016.015.008.015.018.006.034.014.059.023.034.012.042.013.034.009-.009 0 .008.002.033.006a.772.772 0 0 0 .2.04c.031.005.049.008.031.008h.018c.134.006.259-.019.384-.071.024-.01.042-.016.042-.016s.008-.005.026-.015c.023-.011.049-.021.057-.032h.008l.008-.008s.01-.001.01-.009c.016-.01.042-.021.05-.031l.024-.024c.024-.016.041-.027.051-.04.007-.004.017-.015.032-.031.017-.015.024-.024.033-.031 0-.005.018-.02.034-.04l.024-.031c.008-.01.018-.028.033-.056l.009-.009.008-.006.008-.009v-.008l2.948-4.874v6.157c0 .259.092.477.267.655.191.187.408.277.666.277s.482-.092.667-.277c.184-.179.268-.396.268-.655v-9.512c0-.21-.06-.397-.184-.562-.134-.169-.292-.281-.492-.34-.208-.053-.309-.079-.309-.079s-.099.037-.299.109c-.192.079-.342.208-.449.388l-3.89 6.434-3.891-6.434c-.117-.181-.267-.309-.467-.388a.9597.9597 0 0 0-.59-.031c-.208.059-.367.171-.5.34-.125.164-.184.352-.184.562v9.512c0 .259.092.477.273.655.177.186.401.278.66.278z"/></svg>