<svg xmlns="http://www.w3.org/2000/svg" width="110" height="110"><path d="M49.672 58.9c.289 0 .582-.075.846-.226l10.654-6.152a1.69 1.69 0 0 0 0-2.925l-10.654-6.151a1.706 1.706 0 0 0-1.691 0 1.69 1.69 0 0 0-.84 1.462v12.305c0 .604.318 1.159.84 1.463.261.148.552.224.845.224zm1.685-11.072l5.596 3.231-5.596 3.229v-6.46z"/><path d="M87.191 23.931H22.805c-.935 0-1.688.756-1.688 1.688v6.749c0 .934.754 1.688 1.688 1.688h2.019v38.11c0 .932.754 1.688 1.688 1.688h26.913v9.97c-.998.586-1.697 1.623-1.697 2.862a3.388 3.388 0 0 0 3.384 3.384 3.38 3.38 0 0 0 3.38-3.384c0-1.241-.699-2.278-1.693-2.865v-9.967h26.922c.934 0 1.688-.756 1.688-1.688V34.055h1.789c.932 0 1.686-.756 1.686-1.688v-6.749a1.697 1.697 0 0 0-1.693-1.687zM82.029 70.48H28.196V34.055h53.833V70.48zm3.475-39.798H24.489v-3.377h61.015v3.377z"/></svg>