<svg xmlns="http://www.w3.org/2000/svg" width="110" height="110"><path d="M90.132 32.119H78.581v-5.887c0-.075-.031-.145-.04-.219-.013-.073-.024-.139-.042-.209-.078-.285-.199-.555-.41-.768L67.445 14.399c-.213-.212-.479-.332-.761-.408a1.597 1.597 0 0 0-.225-.044c-.07-.009-.138-.042-.207-.042H33.099c-.935 0-1.688.756-1.688 1.688V32.12H19.867c-.934 0-1.687.756-1.687 1.688v39.919c0 .933.753 1.689 1.687 1.689h7.913a1.688 1.688 0 1 0 0-3.377h-6.228V35.492h66.892v36.547h-5.413a1.687 1.687 0 1 0 0 3.376h7.101c.935 0 1.688-.756 1.688-1.688v-39.92a1.69 1.69 0 0 0-1.688-1.688zM67.94 19.664l2.439 2.441 2.442 2.44h-4.886l.005-4.881zM34.784 32.119V17.278h29.782v8.955c0 .931.753 1.688 1.688 1.688h8.957v4.199l-40.427-.001z"/><path d="M75.585 55.709H34.413c-.934 0-1.688.758-1.688 1.688v37.011c0 .932.754 1.688 1.688 1.688h41.174c.932 0 1.687-.756 1.687-1.688V57.396a1.69 1.69 0 0 0-1.689-1.687zm-1.687 3.373v3.791H36.101v-3.791h37.797zm-37.797 33.64V66.246H73.9v26.476H36.101zm36.44-47.867c0-.931-.754-1.688-1.688-1.688H30.695c-.934 0-1.687.757-1.687 1.688 0 .933.753 1.688 1.687 1.688h40.157a1.689 1.689 0 0 0 1.689-1.688z"/><circle cx="80.324" cy="44.857" r="2.841"/><path d="M56.667 69.57c-.522-1.267-2.599-1.267-3.122 0l-7.199 17.504c-.354.86.059 1.849.92 2.201a1.682 1.682 0 0 0 2.202-.921l2.083-5.063h7.11l2.083 5.063a1.693 1.693 0 0 0 2.203.921 1.687 1.687 0 0 0 .92-2.201l-7.2-17.504zM52.94 79.917l2.166-5.271 2.166 5.271H52.94z"/></svg>