<svg xmlns="http://www.w3.org/2000/svg" width="89.185" height="89.185"><path d="M44.59 28.92c5.724 0 10.716 3.127 13.361 7.762L44.59 44.594V28.92" fill="#cececf"/><path d="M62.022 32.526l-3.588 2.124c-2.852-4.083-7.382-6.712-12.339-7.159v-4.039c0-.832-.672-1.504-1.504-1.504s-1.504.672-1.504 1.504v21.143c0 .543.29 1.041.758 1.307.234.131.49.197.747.197.264 0 .531-.07.765-.207L63.552 35.12c.717-.424.955-1.35.531-2.062-.427-.722-1.359-.948-2.061-.532zm-6.181 3.656l-9.747 5.771V30.506c3.897.426 7.452 2.5 9.747 5.676z"/><path d="M73.137 60.89c2.756-4.807 4.34-10.368 4.34-16.295 0-5.937-1.589-11.506-4.353-16.319-.02-.041-.033-.084-.056-.124-.023-.039-.052-.072-.078-.108-2.855-4.879-6.927-8.958-11.801-11.821-.049-.038-.097-.078-.152-.11-.059-.034-.121-.057-.182-.083-4.801-2.744-10.351-4.322-16.265-4.322-5.922 0-11.479 1.582-16.283 4.333-.053.023-.106.042-.157.071-.048.028-.088.063-.132.095-4.886 2.864-8.968 6.95-11.827 11.839-.026.037-.056.069-.079.109-.024.042-.039.087-.059.13-2.76 4.811-4.347 10.376-4.347 16.309 0 5.931 1.586 11.495 4.345 16.305.02.045.035.091.061.135.019.032.046.056.066.086 2.859 4.896 6.943 8.988 11.833 11.856.045.033.086.069.135.097.039.022.081.031.121.049 4.813 2.765 10.384 4.355 16.323 4.355 5.934 0 11.5-1.587 16.311-4.348.042-.02.088-.029.129-.053.054-.031.099-.07.147-.106 4.886-2.866 8.967-6.955 11.825-11.846.021-.032.05-.057.07-.091.027-.046.044-.095.065-.143zm-12.334 8.778l-.958-1.662c-.412-.717-1.341-.967-2.054-.555-.721.416-.97 1.334-.554 2.055l.962 1.669c-3.665 1.884-7.762 3.039-12.105 3.255v-3.554c0-.832-.672-1.504-1.504-1.504s-1.504.672-1.504 1.504v3.554c-4.342-.216-8.439-1.371-12.103-3.254l.964-1.667c.416-.721.167-1.643-.55-2.059-.713-.412-1.638-.17-2.058.551l-.963 1.664a30.092 30.092 0 0 1-8.857-8.857l1.664-.959c.72-.416.969-1.334.553-2.055-.412-.721-1.341-.967-2.054-.553l-1.671.963c-1.884-3.665-3.04-7.763-3.256-12.107h3.554c.832 0 1.504-.672 1.504-1.504s-.672-1.504-1.504-1.504h-3.554c.216-4.344 1.372-8.442 3.256-12.107l1.672.965c.234.137.494.199.75.199.52 0 1.025-.271 1.304-.754.416-.721.167-1.639-.553-2.055l-1.665-.959c2.297-3.54 5.32-6.563 8.859-8.86l.958 1.663c.279.482.784.754 1.304.754.256 0 .516-.062.75-.199.721-.416.969-1.334.553-2.055l-.963-1.671c3.665-1.885 7.763-3.041 12.106-3.257v3.554c0 .832.672 1.504 1.504 1.504s1.504-.672 1.504-1.504v-3.554c4.343.217 8.441 1.372 12.106 3.256l-.963 1.665c-.416.721-.167 1.643.55 2.059.238.137.498.199.754.199.52 0 1.025-.268 1.304-.75l.961-1.662a30.1106 30.1106 0 0 1 8.858 8.858l-1.663.96c-.717.416-.965 1.338-.549 2.059.278.482.784.75 1.304.75.256 0 .516-.062.754-.199l1.665-.963c1.884 3.665 3.04 7.763 3.256 12.105h-3.554c-.832 0-1.504.672-1.504 1.504s.672 1.504 1.504 1.504h3.554c-.216 4.344-1.372 8.442-3.257 12.106l-1.667-.962c-.706-.414-1.638-.168-2.054.553-.416.717-.167 1.639.553 2.055l1.66.958a30.1105 30.1105 0 0 1-8.863 8.86z"/></svg>