<svg xmlns="http://www.w3.org/2000/svg" width="89.186" height="89.186"><path fill="#cececf" d="M32.576 60.536l-2.809-10.479 10.479 2.809z"/><path d="M73.145 28.285c-.021-.047-.037-.096-.063-.142-.025-.044-.059-.081-.088-.122-2.856-4.879-6.933-8.958-11.81-11.819-.046-.035-.091-.073-.143-.103-.055-.032-.112-.054-.17-.077-4.804-2.749-10.358-4.329-16.279-4.329-5.926 0-11.485 1.583-16.294 4.337-.051.021-.104.041-.152.069-.047.026-.086.062-.129.093-4.888 2.864-8.972 6.951-11.832 11.839-.027.039-.059.073-.082.114-.024.041-.038.085-.059.128-2.762 4.812-4.351 10.382-4.351 16.316 0 5.94 1.591 11.514 4.356 16.329.02.041.032.083.056.122.017.029.042.05.06.078 2.862 4.902 6.952 8.999 11.85 11.869.042.03.079.062.125.09.034.021.072.027.107.044 4.819 2.772 10.397 4.366 16.345 4.366 5.942 0 11.518-1.592 16.334-4.36.038-.018.078-.025.115-.048.047-.027.086-.062.129-.093 4.899-2.872 8.991-6.973 11.854-11.879.018-.026.042-.046.058-.075.021-.038.034-.077.052-.116 2.766-4.814 4.356-10.388 4.356-16.328 0-5.927-1.587-11.494-4.345-16.303zm-1.961 29.922l-1.673-.962c-.722-.418-1.644-.168-2.056.553-.414.722-.168 1.64.551 2.056l1.667.96a30.0834 30.0834 0 0 1-8.861 8.861l-.958-1.661c-.412-.722-1.332-.976-2.058-.556-.721.416-.967 1.334-.551 2.056l.962 1.671c-3.666 1.885-7.765 3.041-12.11 3.258v-3.554c0-.832-.675-1.505-1.507-1.505-.829 0-1.504.673-1.504 1.505v3.554c-4.346-.216-8.446-1.373-12.113-3.258l.963-1.667c.418-.722.172-1.644-.547-2.06-.728-.42-1.642-.166-2.058.551l-.964 1.666a30.1173 30.1173 0 0 1-8.86-8.858l1.666-.963c.72-.416.964-1.338.548-2.06a1.506 1.506 0 0 0-2.058-.549L18 58.208c-1.885-3.667-3.041-7.767-3.258-12.111h3.556c.83 0 1.504-.673 1.504-1.505s-.674-1.506-1.504-1.506h-3.556c.217-4.345 1.372-8.442 3.257-12.108l1.67.963c.238.137.496.201.75.201.521 0 1.027-.271 1.308-.754.414-.72.166-1.64-.552-2.058l-1.666-.96a30.1306 30.1306 0 0 1 8.865-8.864l.959 1.664c.279.486.787.756 1.308.756.254 0 .514-.062.75-.2.719-.416.967-1.334.553-2.056l-.965-1.672c3.667-1.885 7.766-3.041 12.11-3.257v3.556c0 .83.675 1.502 1.504 1.502.832 0 1.507-.672 1.507-1.502v-3.556c4.345.217 8.444 1.373 12.109 3.258l-.962 1.667c-.416.719-.17 1.642.551 2.058.236.135.494.198.75.198.521 0 1.027-.271 1.308-.754l.958-1.661a30.1239 30.1239 0 0 1 8.862 8.865l-1.668.964c-.721.414-.965 1.336-.551 2.058.281.481.785.752 1.308.752.254 0 .514-.064.748-.201l1.673-.965c1.884 3.665 3.039 7.764 3.255 12.107h-3.555c-.831 0-1.506.674-1.506 1.506s.675 1.505 1.506 1.505h3.555c-.217 4.343-1.373 8.443-3.257 12.109z"/><path d="M46.099 28.338v-4.893c0-.832-.675-1.506-1.507-1.506-.829 0-1.504.674-1.504 1.506V44.59c0 .832.675 1.504 1.504 1.504.832 0 1.507-.672 1.507-1.504V31.363c6.637.751 11.815 6.393 11.815 13.229 0 7.347-5.979 13.32-13.322 13.32-2.062 0-4.065-.495-5.879-1.388l2.597-2.595c.381-.382.526-.935.389-1.453a1.5017 1.5017 0 0 0-1.064-1.064l-10.477-2.809c-.525-.146-1.076.012-1.457.391-.379.379-.525.932-.389 1.453l2.809 10.479c.142.521.547.927 1.066 1.062.129.037.26.053.389.053.396 0 .777-.158 1.064-.442l2.841-2.841c2.447 1.4 5.238 2.165 8.111 2.165 9.007 0 16.33-7.327 16.33-16.33.001-8.496-6.521-15.491-14.823-16.255zM33.353 57.629l-1.457-5.442 5.44 1.461-3.983 3.981z"/></svg>