<svg id="レイヤー_1" xmlns="http://www.w3.org/2000/svg" width="89.186" height="89.186"><style>.st0{fill:#cececf}</style><path class="st0" d="M23.464 35.155h5.621v5.568h-5.621zM35.728 35.155h5.627v5.568h-5.627zM48.004 35.155h5.618v5.568h-5.618zM60.265 35.155h5.625v5.568h-5.625zM23.464 47.323h5.621v5.568h-5.621zM35.728 47.323h5.627v5.568h-5.627zM48.004 47.323h5.618v5.568h-5.618zM60.265 47.323h5.625v5.568h-5.625zM23.464 59.491h5.621v5.568h-5.621zM35.728 59.491h5.627v5.568h-5.627zM48.004 59.491h5.618v5.568h-5.618zM60.265 59.491h5.625v5.568h-5.625z"/><path d="M76.714 14.137h-6.782v3.116h5.227v7.732h-61.13v-7.732h11.349v1.734c0 .861.697 1.559 1.56 1.559s1.559-.696 1.559-1.559v-7.203c0-.861-.695-1.559-1.559-1.559-.861 0-1.56.696-1.56 1.559v2.353H12.47c-.859 0-1.561.694-1.561 1.557v59.44c0 .861.7 1.558 1.561 1.558h64.243c.863 0 1.562-.695 1.562-1.558v-59.44c-.001-.861-.698-1.557-1.561-1.557zM14.027 73.575V28.104h61.13v45.471h-61.13z"/><path d="M44.537 18.989c0 .861.7 1.559 1.559 1.559.857 0 1.559-.696 1.559-1.559v-7.203c0-.861-.701-1.559-1.559-1.559s-1.559.696-1.559 1.559v2.353H31.61v3.116h12.927v1.734zM63.696 18.989c0 .861.697 1.559 1.559 1.559.863 0 1.56-.696 1.56-1.559v-7.203c0-.861-.695-1.559-1.56-1.559-.86 0-1.559.696-1.559 1.559v2.353H50.771v3.116h12.925v1.734zM29.085 33.596h-5.621c-.86 0-1.559.696-1.559 1.559v5.568c0 .86.697 1.559 1.559 1.559h5.621c.859 0 1.562-.697 1.562-1.559v-5.568c-.001-.862-.703-1.559-1.562-1.559zm-1.557 5.569h-2.506v-2.451h2.506v2.451zM41.354 33.596h-5.627c-.857 0-1.56.696-1.56 1.559v5.568c0 .86.701 1.559 1.56 1.559h5.627c.856 0 1.559-.697 1.559-1.559v-5.568c0-.862-.701-1.559-1.559-1.559zm-1.558 5.569h-2.51v-2.451h2.51v2.451zM53.622 33.596h-5.618c-.857 0-1.559.696-1.559 1.559v5.568c0 .86.7 1.559 1.559 1.559h5.618c.857 0 1.56-.697 1.56-1.559v-5.568c-.001-.862-.703-1.559-1.56-1.559zm-1.559 5.569h-2.502v-2.451h2.502v2.451zM65.89 33.596h-5.625c-.857 0-1.56.696-1.56 1.559v5.568c0 .86.701 1.559 1.56 1.559h5.625c.858 0 1.559-.697 1.559-1.559v-5.568c-.001-.862-.7-1.559-1.559-1.559zm-1.559 5.569h-2.508v-2.451h2.508v2.451zM29.085 45.764h-5.621c-.86 0-1.559.696-1.559 1.559v5.568c0 .862.697 1.559 1.559 1.559h5.621c.859 0 1.562-.695 1.562-1.559v-5.568c-.001-.862-.703-1.559-1.562-1.559zm-1.557 5.569h-2.506v-2.451h2.506v2.451zM41.354 45.764h-5.627c-.857 0-1.56.696-1.56 1.559v5.568c0 .862.701 1.559 1.56 1.559h5.627c.856 0 1.559-.695 1.559-1.559v-5.568c0-.862-.701-1.559-1.559-1.559zm-1.558 5.569h-2.51v-2.451h2.51v2.451zM53.622 45.764h-5.618c-.857 0-1.559.696-1.559 1.559v5.568c0 .862.7 1.559 1.559 1.559h5.618c.857 0 1.56-.695 1.56-1.559v-5.568c-.001-.862-.703-1.559-1.56-1.559zm-1.559 5.569h-2.502v-2.451h2.502v2.451zM65.89 45.764h-5.625c-.857 0-1.56.696-1.56 1.559v5.568c0 .862.701 1.559 1.56 1.559h5.625c.858 0 1.559-.695 1.559-1.559v-5.568c-.001-.862-.7-1.559-1.559-1.559zm-1.559 5.569h-2.508v-2.451h2.508v2.451zM29.085 57.932h-5.621c-.86 0-1.559.696-1.559 1.559v5.568c0 .86.697 1.559 1.559 1.559h5.621c.859 0 1.562-.697 1.562-1.559v-5.568c-.001-.862-.703-1.559-1.562-1.559zM27.528 63.5h-2.506v-2.451h2.506V63.5zM41.354 57.932h-5.627c-.857 0-1.56.696-1.56 1.559v5.568c0 .86.701 1.559 1.56 1.559h5.627c.856 0 1.559-.697 1.559-1.559v-5.568c0-.862-.701-1.559-1.559-1.559zM39.796 63.5h-2.51v-2.451h2.51V63.5zM53.622 57.932h-5.618c-.857 0-1.559.696-1.559 1.559v5.568c0 .86.7 1.559 1.559 1.559h5.618c.857 0 1.56-.697 1.56-1.559v-5.568c-.001-.862-.703-1.559-1.56-1.559zM52.063 63.5h-2.502v-2.451h2.502V63.5zM65.89 57.932h-5.625c-.857 0-1.56.696-1.56 1.559v5.568c0 .86.701 1.559 1.56 1.559h5.625c.858 0 1.559-.697 1.559-1.559v-5.568c-.001-.862-.7-1.559-1.559-1.559zM64.331 63.5h-2.508v-2.451h2.508V63.5z"/></svg>