<svg xmlns="http://www.w3.org/2000/svg" width="89.185" height="89.185"><path d="M27.648 83.614c-.192 0-.387-.039-.569-.117a1.4351 1.4351 0 0 1-.874-1.322v-7.059h-9.493c-.797 0-1.444-.643-1.444-1.439v-25.24c0-.795.646-1.439 1.444-1.439h18.759v2.879H18.147v22.361h9.5c.794 0 1.437.643 1.437 1.439v5.152l6.549-6.197c.264-.252.619-.395.988-.395h19.033V58.629h2.879v15.047c0 .797-.643 1.439-1.436 1.439h-19.9l-8.561 8.104c-.269.26-.629.395-.988.395z"/><path d="M70.997 61.204c-.36 0-.715-.135-.992-.395l-8.554-8.1H42.253c-.793 0-1.439-.643-1.439-1.441V40.057h2.879v9.771h18.33c.367 0 .722.145.993.395l6.542 6.195v-5.15c0-.793.646-1.439 1.439-1.439h6.624V24.184H54.845v-2.881h24.212c.796 0 1.444.643 1.444 1.441v28.523c0 .799-.648 1.441-1.444 1.441h-6.62v7.055c0 .574-.341 1.096-.872 1.322-.18.08-.376.119-.568.119z"/><path d="M20.772 43.266c-.191 0-.387-.037-.568-.115-.534-.229-.875-.748-.875-1.324v-7.049h-9.208c-.793 0-1.437-.643-1.437-1.439V7.01c0-.795.644-1.439 1.437-1.439h38.031c.796 0 1.439.645 1.439 1.439v26.328c0 .797-.643 1.439-1.439 1.439H30.319l-8.558 8.096c-.274.26-.63.393-.989.393zm-9.208-11.367h9.208c.793 0 1.437.643 1.437 1.439v5.145l6.545-6.189c.267-.254.622-.395.992-.395h16.965V8.452H11.564v23.447z"/></svg>