<svg xmlns="http://www.w3.org/2000/svg" width="89.186" height="110.058"><path d="M44.672 28.921c5.724 0 10.716 3.127 13.36 7.763l-13.36 7.911V28.921" fill="#cececf"/><path d="M16.132 60.898c.021.046.036.093.062.137.019.032.046.057.067.087 2.86 4.898 6.947 8.992 11.841 11.859.042.03.081.064.127.092.037.021.077.029.114.047 4.815 2.768 10.388 4.358 16.329 4.358 5.936 0 11.504-1.589 16.316-4.351.04-.019.084-.027.123-.051.051-.029.094-.066.14-.101 4.889-2.866 8.973-6.956 11.832-11.851.021-.031.051-.057.07-.091.027-.047.044-.096.065-.145 2.755-4.807 4.34-10.368 4.34-16.296 0-5.938-1.59-11.507-4.354-16.32-.02-.041-.032-.083-.056-.123-.022-.039-.052-.07-.077-.107-2.855-4.881-6.931-8.962-11.807-11.825-.048-.036-.094-.075-.146-.105-.057-.032-.116-.055-.175-.079-4.803-2.747-10.354-4.326-16.272-4.326-5.926 0-11.484 1.584-16.291 4.338-.05.021-.102.039-.149.067-.046.026-.084.06-.125.091-4.889 2.863-8.974 6.951-11.834 11.842-.026.037-.057.07-.079.109-.024.043-.039.087-.059.131-2.76 4.811-4.347 10.376-4.347 16.309.001 5.931 1.587 11.496 4.345 16.304zM28.458 19.52l.959 1.663c.278.482.783.754 1.304.754.256 0 .516-.063.75-.2.721-.416.97-1.334.554-2.055l-.963-1.671c3.664-1.885 7.762-3.04 12.105-3.257v3.554c0 .832.673 1.504 1.505 1.504s1.504-.672 1.504-1.504v-3.554c4.343.217 8.441 1.372 12.106 3.256l-.963 1.664c-.416.721-.167 1.643.55 2.059.237.137.497.2.754.2.52 0 1.025-.268 1.304-.75l.961-1.662a30.087 30.087 0 0 1 8.858 8.858l-1.663.96c-.717.416-.965 1.337-.549 2.058.278.483.783.751 1.304.751.256 0 .516-.063.754-.2l1.664-.962c1.884 3.664 3.039 7.762 3.256 12.104h-3.554c-.832 0-1.504.672-1.504 1.504s.672 1.505 1.504 1.505h3.554c-.217 4.343-1.372 8.441-3.257 12.105l-1.667-.962c-.706-.413-1.638-.168-2.054.553-.416.717-.168 1.639.553 2.055l1.66.958a30.119 30.119 0 0 1-8.862 8.86l-.958-1.662c-.412-.717-1.341-.966-2.054-.554-.721.416-.97 1.334-.554 2.055l.962 1.669c-3.665 1.884-7.763 3.038-12.105 3.255v-3.554c0-.832-.672-1.504-1.504-1.504s-1.505.672-1.505 1.504v3.554c-4.342-.217-8.438-1.371-12.103-3.254l.964-1.667c.416-.721.167-1.642-.55-2.058-.714-.412-1.639-.171-2.058.55l-.963 1.665a30.0988 30.0988 0 0 1-8.858-8.858l1.664-.959c.721-.416.97-1.334.554-2.055-.412-.721-1.341-.966-2.055-.553l-1.671.964c-1.885-3.665-3.04-7.764-3.257-12.107h3.554c.832 0 1.505-.673 1.505-1.505s-.673-1.504-1.505-1.504h-3.554c.217-4.344 1.372-8.441 3.256-12.107l1.672.965c.234.137.494.2.751.2.52 0 1.024-.271 1.304-.754.416-.721.167-1.639-.554-2.055l-1.665-.96a30.1326 30.1326 0 0 1 8.86-8.859z"/><path d="M43.925 45.902c.234.13.49.197.747.197.264 0 .531-.071.765-.208L63.634 35.12c.717-.424.954-1.349.531-2.062-.428-.721-1.359-.947-2.062-.531l-3.588 2.123c-2.852-4.083-7.382-6.712-12.34-7.159v-4.038c0-.832-.672-1.505-1.504-1.505s-1.505.673-1.505 1.505v21.142c.001.542.291 1.04.759 1.307zm11.998-9.72l-9.747 5.771V30.507c3.896.426 7.451 2.5 9.747 5.675zM74.759 79.182H14.427c-2.114 0-3.834 1.721-3.834 3.835v12.33c0 2.114 1.72 3.835 3.834 3.835h60.332c2.114 0 3.834-1.721 3.834-3.835v-12.33c0-2.114-1.72-3.835-3.834-3.835zm1.834 16.165c0 1.012-.822 1.835-1.834 1.835H14.427c-1.012 0-1.834-.823-1.834-1.835v-12.33c0-1.012.822-1.835 1.834-1.835h60.332c1.012 0 1.834.823 1.834 1.835v12.33z"/><path d="M19.55 92.077c-.057.284-.132.504-.229.66-.096.156-.209.26-.342.312-.132.052-.273.078-.426.078-.184 0-.346-.038-.486-.114-.14-.076-.256-.224-.348-.444-.092-.22-.16-.529-.204-.93s-.065-.924-.065-1.572c0-.607.016-1.122.047-1.542.033-.42.089-.76.168-1.02.08-.261.19-.448.33-.564.141-.116.318-.174.535-.174.392 0 .661.142.81.426.147.284.222.738.222 1.362h1.729c0-.312-.022-.646-.066-1.002-.044-.356-.154-.688-.33-.996s-.441-.562-.798-.762c-.356-.2-.842-.301-1.458-.301-.648 0-1.164.11-1.548.33-.384.221-.679.526-.882.918-.204.393-.336.862-.396 1.41-.06.548-.09 1.146-.09 1.794 0 .656.03 1.256.09 1.8.061.545.192 1.013.396 1.404.203.393.498.692.882.9s.899.312 1.548.312c.568 0 1.029-.088 1.387-.264.355-.176.631-.42.827-.732.196-.312.33-.676.402-1.092.071-.416.108-.855.108-1.32h-1.729c0 .466-.029.84-.084 1.123zM26.521 88.447c-.192-.288-.452-.502-.78-.642s-.74-.206-1.236-.198c-.472 0-.869.074-1.193.222-.324.148-.586.364-.786.648s-.344.638-.433 1.062c-.088.425-.131.912-.131 1.465 0 .56.039 1.054.119 1.481s.217.784.408 1.068c.192.284.452.492.78.624s.739.193 1.235.186c.473 0 .871-.068 1.195-.204.323-.136.586-.346.785-.63.2-.284.344-.638.432-1.062s.133-.912.133-1.464c0-.568-.041-1.064-.12-1.488-.08-.423-.215-.78-.408-1.068zm-1.319 4.296c-.129.353-.361.528-.697.528-.199 0-.359-.056-.479-.168s-.21-.268-.271-.468c-.06-.2-.098-.44-.113-.721-.016-.279-.023-.583-.023-.911s.008-.633.023-.912c.016-.28.054-.521.113-.721.061-.199.15-.355.271-.468.12-.111.28-.168.479-.168.336 0 .568.176.697.528.127.352.191.932.191 1.74 0 .809-.064 1.389-.191 1.741zM31.057 92.059c0 .712-.293 1.068-.877 1.068-.248 0-.428-.066-.539-.198-.113-.132-.168-.366-.168-.702v-4.452h-1.656v4.788c0 .648.142 1.11.426 1.386.283.276.689.414 1.218.414.36 0 .681-.068.96-.204.28-.136.508-.363.684-.684h.024v.756h1.585v-6.456h-1.656v4.284zM36.95 87.607c-.361 0-.681.074-.961.222-.279.148-.508.383-.684.702h-.023v-.756h-1.585v6.456h1.656v-4.284c0-.712.292-1.067.876-1.067.248 0 .428.065.54.197s.168.366.168.702v4.452h1.656v-4.788c0-.647-.143-1.116-.427-1.404-.282-.288-.689-.432-1.216-.432zM41.593 85.927h-1.655v1.848h-.841v1.128h.841v3.696c0 .328.02.6.06.815.04.217.114.391.223.522.107.132.264.22.468.264s.466.066.786.066c.191 0 .373-.006.546-.019.172-.012.35-.018.534-.018v-1.152c-.057.009-.116.015-.18.019-.064.004-.129.006-.193.006-.239 0-.397-.054-.473-.162-.076-.108-.115-.29-.115-.546v-3.492h.961v-1.128h-.961v-1.847zM47.245 88.501c-.176-.283-.418-.504-.727-.659-.308-.156-.701-.234-1.182-.234-.561 0-1.008.092-1.344.276-.336.184-.594.432-.773.744-.181.312-.301.668-.361 1.067-.06.4-.09.816-.09 1.248 0 .408.019.816.055 1.224.035.408.134.776.294 1.104.159.328.407.592.743.792.337.2.805.3 1.404.3.793 0 1.373-.195 1.74-.588.368-.392.568-.964.6-1.716h-1.487c-.048.408-.136.712-.265.912-.127.2-.332.3-.611.3-.152 0-.28-.042-.385-.126-.104-.084-.188-.196-.252-.336-.063-.14-.109-.3-.138-.48-.028-.18-.042-.365-.042-.558v-.516H47.7v-.372c0-.496-.032-.946-.097-1.351-.062-.402-.182-.747-.358-1.031zm-2.82 1.77v-.252c0-.152.014-.304.042-.456s.074-.29.138-.414c.064-.124.15-.224.258-.3.109-.076.246-.114.414-.114s.307.034.414.103c.108.067.192.168.252.3.061.132.103.292.127.479.023.188.039.406.048.654h-1.693zM51.541 87.607c-.345 0-.636.094-.876.282-.24.188-.443.438-.611.75h-.024v-.864h-1.585v6.456H50.1v-3.876c0-.216.037-.397.108-.546.072-.148.168-.268.288-.36.12-.092.252-.157.396-.198.144-.039.287-.06.432-.06.088 0 .174.002.258.006s.17.011.258.019v-1.584a1.7047 1.7047 0 0 0-.15-.019 1.9126 1.9126 0 0 0-.149-.006zM58.153 90.523l-.996-.336c-.28-.088-.471-.196-.57-.324s-.149-.271-.149-.432c0-.232.077-.406.233-.522.156-.115.338-.174.547-.174.271 0 .461.078.569.234.108.155.162.401.162.737h1.488v-.264c0-.584-.181-1.036-.54-1.355-.36-.32-.916-.48-1.668-.48-.424 0-.786.052-1.086.156-.301.104-.547.244-.738.42s-.332.382-.42.618c-.088.235-.132.485-.132.75 0 .456.116.83.348 1.122s.576.518 1.032.678l1.164.42c.16.064.3.15.42.258.12.108.18.267.18.475 0 .256-.076.447-.228.575-.152.128-.356.192-.612.192-.28 0-.494-.086-.643-.258-.147-.172-.221-.398-.221-.679v-.216h-1.488v.229c0 .312.035.594.107.846s.198.466.379.642c.18.177.424.309.731.396s.694.132 1.157.132c.353 0 .674-.036.967-.107.292-.072.544-.192.756-.36s.378-.378.498-.63.18-.55.18-.895c0-.487-.107-.874-.324-1.157-.214-.285-.583-.515-1.103-.691zM64.524 88.501c-.176-.283-.418-.504-.726-.659-.308-.156-.702-.234-1.183-.234-.56 0-1.008.092-1.344.276-.336.184-.594.432-.773.744-.18.312-.301.668-.36 1.067-.06.4-.09.816-.09 1.248 0 .408.019.816.054 1.224.036.408.135.776.295 1.104.159.328.407.592.743.792.337.2.804.3 1.404.3.792 0 1.372-.195 1.739-.588.369-.392.568-.964.601-1.716h-1.487c-.049.408-.137.712-.265.912s-.332.3-.612.3c-.152 0-.279-.042-.384-.126s-.188-.196-.252-.336-.11-.3-.138-.48c-.028-.18-.043-.365-.043-.558v-.516h3.277v-.372c0-.496-.033-.946-.097-1.351-.062-.402-.183-.747-.359-1.031zm-2.82 1.77v-.252c0-.152.015-.304.043-.456.027-.152.074-.29.138-.414s.149-.224.258-.3.246-.114.414-.114.306.034.414.103c.108.067.192.168.252.3s.103.292.126.479c.024.188.04.406.049.654h-1.694zM70.321 92.983v-3.396c0-.288-.03-.555-.09-.799-.061-.243-.175-.453-.343-.63-.168-.176-.403-.312-.708-.408-.304-.096-.704-.144-1.199-.144-.312 0-.606.034-.883.102-.275.068-.516.181-.72.337-.204.155-.366.359-.485.611-.121.252-.181.566-.181.942v.156H67.2v-.181c0-.256.064-.46.193-.611.127-.152.319-.229.575-.229.28 0 .478.07.595.21.115.141.174.334.174.582 0 .216-.049.38-.145.492s-.268.2-.516.264l-.937.252c-.288.08-.534.173-.737.276-.205.104-.373.234-.504.39-.133.156-.23.345-.295.564s-.096.481-.096.786c0 .216.027.434.084.653.057.221.145.419.264.595.121.176.28.313.48.414.199.1.443.149.732.149.399 0 .726-.05.978-.149.252-.101.474-.318.666-.654h.024c.023.112.049.226.078.342.027.116.069.227.125.33h1.584c-.08-.192-.134-.372-.162-.54-.025-.166-.039-.402-.039-.706zm-1.584-.708c0 .176-.033.328-.097.456s-.146.232-.245.312a.992.992 0 0 1-.33.175c-.121.036-.236.054-.349.054-.224 0-.384-.088-.479-.264-.097-.176-.145-.389-.145-.637 0-.288.072-.516.217-.684.143-.168.383-.288.719-.36.104-.023.221-.062.349-.113.128-.053.247-.122.36-.21v1.271zM73.393 85.927h-1.656v1.848h-.84v1.128h.84v3.696c0 .328.02.6.061.815.039.217.113.391.221.522.108.132.265.22.469.264s.466.066.786.066c.192 0 .374-.006.546-.019.172-.012.35-.018.533-.018v-1.152c-.055.009-.115.015-.18.019s-.128.006-.191.006c-.24 0-.398-.054-.475-.162s-.113-.29-.113-.546v-3.492h.959v-1.128h-.959v-1.847z"/></svg>