<svg xmlns="http://www.w3.org/2000/svg" width="89.186" height="110.058"><path d="M44.559 28.921c5.724 0 10.716 3.127 13.36 7.763l-13.36 7.911V28.921" fill="#cececf"/><path d="M16.019 60.899c.021.045.036.092.062.136.02.032.047.057.067.087 2.86 4.897 6.946 8.991 11.839 11.858.043.031.082.065.129.093.037.021.077.029.115.048 4.814 2.767 10.387 4.357 16.328 4.357 5.936 0 11.503-1.588 16.315-4.351.041-.019.085-.027.124-.051.051-.029.095-.067.141-.102 4.889-2.866 8.972-6.956 11.83-11.849.022-.032.051-.058.071-.092.027-.047.044-.097.065-.146 2.756-4.808 4.34-10.367 4.34-16.295 0-5.937-1.59-11.506-4.354-16.319-.02-.041-.032-.084-.056-.124-.022-.039-.052-.071-.077-.107-2.856-4.882-6.932-8.963-11.809-11.825-.047-.036-.092-.075-.145-.105-.057-.032-.116-.054-.175-.079-4.802-2.747-10.354-4.326-16.272-4.326-5.926 0-11.485 1.584-16.291 4.338-.051.021-.102.039-.149.067-.046.026-.083.06-.126.091-4.889 2.863-8.973 6.951-11.833 11.842-.026.037-.056.07-.079.109-.024.042-.039.087-.059.131-2.76 4.811-4.347 10.376-4.347 16.309.003 5.932 1.588 11.496 4.346 16.305zM28.345 19.52l.958 1.663c.279.482.784.754 1.305.754.256 0 .516-.063.75-.2.721-.416.969-1.334.553-2.055l-.963-1.671c3.665-1.885 7.763-3.04 12.106-3.257v3.554c0 .832.673 1.504 1.505 1.504s1.504-.672 1.504-1.504v-3.554c4.344.217 8.441 1.372 12.105 3.256l-.963 1.664c-.416.721-.166 1.643.551 2.059.237.137.497.2.754.2.52 0 1.025-.268 1.303-.75l.962-1.663a30.114 30.114 0 0 1 8.858 8.859l-1.663.96c-.717.416-.966 1.337-.55 2.058.279.483.784.751 1.305.751.256 0 .516-.063.754-.2l1.664-.963c1.885 3.665 3.039 7.763 3.256 12.105h-3.554c-.832 0-1.505.672-1.505 1.504s.673 1.505 1.505 1.505h3.554c-.217 4.343-1.372 8.441-3.257 12.105l-1.667-.962c-.706-.413-1.639-.168-2.055.553-.416.717-.167 1.639.554 2.055l1.659.958a30.1037 30.1037 0 0 1-8.861 8.86l-.959-1.662c-.412-.717-1.34-.966-2.053-.554-.721.416-.971 1.334-.555 2.055l.963 1.669c-3.665 1.884-7.763 3.038-12.105 3.255v-3.554c0-.832-.672-1.504-1.504-1.504s-1.505.672-1.505 1.504v3.554c-4.343-.217-8.438-1.371-12.103-3.254l.963-1.667c.416-.721.168-1.642-.549-2.058-.714-.412-1.639-.171-2.059.55l-.962 1.664a30.0836 30.0836 0 0 1-8.858-8.857l1.664-.959c.721-.416.969-1.334.553-2.055-.412-.721-1.34-.966-2.054-.553l-1.671.964c-1.885-3.666-3.04-7.764-3.257-12.107h3.554c.832 0 1.504-.673 1.504-1.505s-.672-1.504-1.504-1.504h-3.554c.216-4.344 1.372-8.441 3.256-12.107l1.672.965c.234.137.494.2.751.2.52 0 1.024-.271 1.303-.754.416-.721.168-1.639-.553-2.055l-1.664-.96c2.297-3.538 5.319-6.562 8.859-8.859z"/><path d="M43.812 45.902c.233.13.49.197.747.197.264 0 .531-.071.765-.208L63.52 35.12c.717-.424.955-1.349.531-2.062-.427-.721-1.359-.947-2.061-.531l-3.588 2.123c-2.852-4.083-7.383-6.712-12.34-7.158v-4.039c0-.832-.672-1.505-1.504-1.505s-1.505.673-1.505 1.505v21.142c.001.542.291 1.04.759 1.307zm11.997-9.72l-9.746 5.771V30.507c3.897.426 7.451 2.5 9.746 5.675zM70.565 79.182H18.233c-2.113 0-3.834 1.721-3.834 3.835v12.33c0 2.114 1.721 3.835 3.834 3.835h52.332c2.113 0 3.834-1.721 3.834-3.835v-12.33c0-2.114-1.721-3.835-3.834-3.835zm1.834 16.165c0 1.012-.822 1.835-1.834 1.835H18.233c-1.012 0-1.834-.823-1.834-1.835v-12.33c0-1.012.822-1.835 1.834-1.835h52.332c1.012 0 1.834.823 1.834 1.835v12.33z"/><path d="M30.28 92.396c.539-.348 1.162-.804 1.678-1.211l-.923-1.008c-.348.372-.876.815-1.367 1.188-.192-.408-.348-.84-.479-1.308h2.074v-5.505h-5.421v8.6c0 .563-.3.888-.552 1.043.204.24.504.804.611 1.115.289-.18.732-.359 3.07-.959-.047-.3-.071-.888-.06-1.296l-1.667.372v-3.37h.72c.563 2.351 1.523 4.198 3.31 5.182.205-.396.637-.96.948-1.235-.792-.361-1.439-.924-1.942-1.608zm-3.035-6.62h2.639v.936h-2.639v-.936zm0 3.046v-.959h2.639v.959h-2.639zM24.463 88.163c.323-.924.72-2.135 1.031-3.143l-.936-.54-.192.061h-2.854v10.71h1.247v-9.438h1.163c-.191.791-.455 1.763-.684 2.494.684.84.84 1.607.84 2.195 0 .335-.072.6-.216.707-.084.072-.204.096-.324.096-.132.013-.312 0-.516-.012.192.348.312.876.312 1.224.276.012.564.012.78-.024.264-.048.491-.12.671-.264.385-.288.54-.804.54-1.571.001-.708-.143-1.56-.862-2.495zM33.38 93.212h1.296v-1.067h2.267v-7.028H33.38v8.095zm1.296-6.788h.96v4.413h-.96v-4.413zM42.135 93.763h-2.219c-.707 0-.804-.108-.804-.827v-2.255h3.274v.695h1.379v-6.584H37.71v8.131c0 1.728.492 2.159 2.051 2.159h2.507c1.392 0 1.823-.6 2.003-2.278-.396-.072-.972-.312-1.283-.552-.097 1.236-.217 1.511-.853 1.511zm-.779-7.664h1.031v3.286h-1.031v-3.286zm-2.243 0h.948v3.286h-.948v-3.286zM52.971 93.475h2.363v-.791h-2.363v-.48l1.284-.048c.144.156.288.312.384.444l.815-.612c-.228-.287-.659-.659-1.091-.995h.779v-.191h.863V89.17h-7.328v.132c-.288-.407-.731-1.007-.947-1.259v-.432h1.127v-1.308H47.73v-2.23h-1.224v2.23H45.03v1.319h1.392c-.312 1.439-.936 3.118-1.631 4.065.216.372.527 1.032.647 1.439.408-.623.756-1.511 1.067-2.507v4.653h1.224v-5.589c.168.336.324.66.408.899l.539-.684v.912h.768v.18h1.115l-.275.204c-.229.144-.66.239-.852.3.072.18.24.695.275.936.204-.072.504-.108 1.871-.18v.432h-2.387v.791h2.387v.432h-3.262v.912h7.867v-.912h-3.215v-.43zm-3.033-3.238v-.3h4.749v.3h-4.749zm1.427 1.212c.18-.145.36-.3.528-.456h1.486l-.275.192c.096.06.18.132.275.203l-2.014.061z"/><path d="M51.581 85.944h-2.303v.768h6.105v-.768h-2.412v-.372h2.963v-.804h-2.963v-.624h-1.39v.624h-2.855v.804h2.855zM55.335 88.858v-1.823h-5.937v1.823h5.937zm-4.701-1.127h3.382v.432h-3.382v-.432zM65.62 86.303h-4.713v2.854h4.713v-2.854zm-1.416 1.919h-1.967v-.983h1.967v.983z"/><path d="M58.952 85.752h8.394v-1.247h-9.774v10.302h10.267v-1.259h-8.887z"/><path d="M59.682 92.912h3.311v-3.227h-3.311v3.227zm1.153-2.267h.936v1.308h-.936v-1.308zM66.903 89.685H63.52v3.227h3.383v-3.227zm-1.235 2.268h-.972v-1.308h.972v1.308z"/></svg>