<svg xmlns="http://www.w3.org/2000/svg" width="89.186" height="110.058"><path d="M44.753 28.921c5.724 0 10.716 3.127 13.36 7.763l-13.36 7.911V28.921" fill="#cececf"/><path d="M16.213 60.898c.021.046.036.093.062.137.02.032.047.057.067.087 2.859 4.897 6.946 8.99 11.838 11.857.043.031.083.066.13.094.037.021.077.029.115.048 4.815 2.767 10.388 4.357 16.328 4.357 5.936 0 11.503-1.588 16.315-4.351.041-.019.084-.027.124-.051.052-.029.095-.067.142-.102 4.888-2.866 8.971-6.956 11.829-11.849.022-.032.052-.058.071-.092.027-.047.044-.098.066-.146 2.755-4.808 4.339-10.368 4.339-16.295 0-5.937-1.59-11.506-4.354-16.318-.019-.042-.032-.084-.056-.125-.022-.039-.053-.072-.078-.108-2.855-4.88-6.929-8.96-11.805-11.823-.048-.036-.094-.075-.147-.106-.058-.033-.117-.056-.177-.08-4.802-2.747-10.354-4.325-16.271-4.325-5.925 0-11.484 1.584-16.291 4.337-.05.022-.102.04-.149.068-.046.026-.084.06-.126.091-4.889 2.863-8.973 6.951-11.833 11.842-.026.037-.056.07-.079.109-.024.043-.039.087-.059.131-2.76 4.811-4.347 10.376-4.347 16.309.002 5.931 1.588 11.496 4.346 16.304zM28.539 19.52l.958 1.663c.279.482.784.754 1.305.754.256 0 .516-.063.75-.2.721-.416.969-1.334.553-2.055l-.963-1.671c3.665-1.885 7.763-3.04 12.106-3.257v3.554c0 .832.673 1.504 1.505 1.504s1.504-.672 1.504-1.504v-3.554c4.343.217 8.44 1.372 12.105 3.256l-.963 1.664c-.416.721-.166 1.643.551 2.059.237.137.497.2.754.2.52 0 1.025-.268 1.303-.75l.962-1.663a30.114 30.114 0 0 1 8.858 8.859l-1.663.96c-.717.416-.966 1.337-.55 2.058.279.483.784.751 1.305.751.256 0 .516-.063.754-.2l1.664-.963c1.884 3.665 3.039 7.763 3.256 12.105h-3.554c-.832 0-1.505.672-1.505 1.504s.673 1.505 1.505 1.505h3.554c-.217 4.343-1.372 8.441-3.257 12.105l-1.667-.962c-.706-.413-1.639-.168-2.055.553-.416.717-.167 1.639.554 2.055l1.66.958a30.1105 30.1105 0 0 1-8.863 8.86l-.958-1.662c-.412-.717-1.34-.966-2.053-.554-.721.416-.971 1.334-.555 2.055l.962 1.669c-3.664 1.884-7.762 3.038-12.104 3.255v-3.554c0-.832-.672-1.504-1.504-1.504s-1.505.672-1.505 1.504v3.554c-4.342-.217-8.438-1.371-12.103-3.255l.963-1.666c.416-.721.168-1.642-.549-2.058-.714-.412-1.639-.171-2.059.55l-.962 1.664a30.0836 30.0836 0 0 1-8.858-8.857l1.664-.959c.721-.416.969-1.334.553-2.055-.412-.721-1.34-.966-2.054-.553l-1.671.964c-1.885-3.666-3.04-7.764-3.257-12.107h3.554c.832 0 1.504-.673 1.504-1.505s-.672-1.504-1.504-1.504h-3.554c.216-4.344 1.372-8.441 3.256-12.107l1.672.965c.234.137.494.2.751.2.52 0 1.024-.271 1.303-.754.416-.721.168-1.639-.553-2.055l-1.664-.96a30.1055 30.1055 0 0 1 8.859-8.859z"/><path d="M44.006 45.902c.233.13.49.197.747.197.264 0 .531-.071.765-.208L63.714 35.12c.717-.424.955-1.349.531-2.062-.427-.721-1.359-.947-2.061-.531l-3.588 2.124c-2.853-4.084-7.383-6.713-12.34-7.16v-4.038c0-.832-.672-1.505-1.504-1.505s-1.505.673-1.505 1.505v21.142c.001.542.291 1.04.759 1.307zm11.997-9.72l-9.746 5.771V30.507c3.896.426 7.451 2.5 9.746 5.675zM74.759 79.182H14.427c-2.114 0-3.834 1.721-3.834 3.835v12.33c0 2.114 1.72 3.835 3.834 3.835h60.332c2.114 0 3.834-1.721 3.834-3.835v-12.33c0-2.114-1.72-3.835-3.834-3.835zm1.834 16.165c0 1.012-.822 1.835-1.834 1.835H14.427c-1.012 0-1.834-.823-1.834-1.835v-12.33c0-1.012.822-1.835 1.834-1.835h60.332c1.012 0 1.834.823 1.834 1.835v12.33z"/><path d="M20.798 86.76H19.14c.018-.348.026-.708.035-1.08.009-.287.026-.791.053-1.067h-1.296c.035.288.062.84.062 1.104 0 .36-.009.708-.019 1.044h-1.261c-.335 0-.794-.036-1.164-.084v1.571c.38-.048.864-.048 1.164-.048h1.165c-.195 1.822-.636 3.166-1.456 4.27-.353.491-.794.899-1.155 1.175l1.023 1.128c1.578-1.523 2.416-3.406 2.742-6.572h1.984c0 1.295-.114 3.693-.37 4.449-.097.288-.22.42-.503.42-.344 0-.803-.061-1.234-.168l.141 1.606c.424.049.953.097 1.455.097.609 0 .944-.312 1.139-.924.379-1.224.484-4.569.52-5.864 0-.133.035-.433.062-.636l-.768-.504c-.21.046-.441.083-.661.083zM29.235 86.46h-1.534v-.924c0-.336.018-.588.062-1.104h-1.357c.062.516.07.768.07 1.104v.924h-1.888c-.335 0-.6-.013-.899-.061.035.288.044.768.044 1.032v2.074c0 .324-.018.708-.044 1.008h1.217c-.018-.24-.026-.612-.026-.888v-1.751h4.374c-.105 1.067-.334 2.207-.784 3.082-.494.972-1.271 1.68-2.002 2.051-.362.192-.847.372-1.243.468l.916 1.439c1.57-.552 2.894-1.823 3.6-3.598.432-1.092.67-2.243.82-3.395.035-.24.105-.695.176-.959l-.768-.636c-.152.073-.363.134-.734.134zM34.145 89.014l.9-1.248c-.512-.719-1.676-1.967-2.275-2.519l-.829 1.212c.644.6 1.746 1.884 2.204 2.555zM35.134 91.533c-.855.695-2.002 1.307-3.378 1.571l.741 1.583c1.243-.288 2.381-.96 3.271-1.691 1.42-1.163 2.594-2.818 3.264-4.438l-.688-1.691c-.556 1.619-1.703 3.454-3.21 4.666zM45.511 86.04h-1.869l.044-.12c.132-.372.273-.731.449-1.151l-1.313-.552c-.062.408-.159.792-.282 1.14-.3.899-1.227 2.891-2.69 4.222l.988.995c.864-.827 1.641-2.051 2.205-3.166h2.514c-.15.792-.459 1.811-.883 2.687-.502-.456-1.075-.96-1.657-1.415l-.75 1.151c.6.491 1.182 1.031 1.641 1.487-.732 1.02-1.641 1.919-2.813 2.482l1.014 1.235c1.094-.636 2.329-1.859 3.229-3.502.679-1.199 1.129-2.495 1.49-3.994.07-.288.194-.647.291-.863l-.847-.779c-.196.107-.496.143-.761.143zM48.746 88.75c-.307 0-.736-.035-.948-.071v1.883c.218-.036.612-.06.948-.06h3.162c.248 0 .548.048.689.06v-1.883c-.153.023-.412.071-.689.071h-3.162zM56.458 89.158c-.449-.432-1.42-1.26-2.011-1.691l-.644 1.332c.591.419 1.508 1.235 2.011 1.703l.644-1.344zM57.173 91.904c-.962.72-2.02 1.116-3.008 1.344l.661 1.583c.785-.191 2.047-.792 2.946-1.487 1.446-1.127 2.689-2.65 3.51-4.306l-.679-1.631c-.706 1.715-1.931 3.358-3.43 4.497zM57.816 86.447c-.468-.432-1.429-1.283-2.011-1.715l-.644 1.319c.582.444 1.499 1.26 1.993 1.728l.662-1.332zM63.241 88.75c-.306 0-.736-.035-.948-.071v1.883c.218-.036.612-.06.948-.06h3.163c.247 0 .548.048.689.06v-1.883c-.153.023-.413.071-.689.071h-3.163zM70.083 86.183c0-.491.044-1.02.079-1.438h-1.376c.062.419.089 1.019.089 1.438v6.896c0 .479-.036 1.199-.089 1.679h1.376c-.035-.491-.079-1.331-.079-1.679v-3.395c.952.444 2.275 1.14 3.184 1.787l.503-1.654c-.812-.54-2.505-1.392-3.687-1.859v-1.775z"/></svg>