<svg xmlns="http://www.w3.org/2000/svg" width="89.185" height="89.185"><path d="M44.592 28.913c8.493 0 15.381 6.889 15.381 15.383 0 2.803-.761 5.418-2.071 7.686l-13.31-7.387V28.913" fill="#cececf"/><path d="M65.26 54.788l-5.474-3.16c1.107-2.29 1.692-4.799 1.692-7.332 0-8.803-6.774-16.045-15.381-16.811v-4.043c0-.832-.674-1.504-1.505-1.504s-1.505.672-1.505 1.504v21.153c0 .135.019.268.053.395.015.054.043.101.063.152.028.071.05.144.088.209.029.05.071.092.106.139.044.059.083.121.136.173.029.028.065.049.097.075.067.057.132.117.21.162l19.914 11.496c.239.137.496.199.751.199.52 0 1.028-.271 1.305-.75.417-.721.171-1.643-.55-2.057zm-6.792-10.493c0 1.93-.412 3.844-1.199 5.611l-11.172-6.199V30.499c6.946.753 12.371 6.652 12.371 13.796z"/><path d="M73.143 60.91c2.762-4.812 4.35-10.38 4.35-16.315 0-5.944-1.592-11.52-4.36-16.337-.018-.037-.029-.075-.05-.11-.021-.036-.048-.065-.071-.099-2.857-4.889-6.936-8.977-11.819-11.843-.048-.037-.094-.076-.148-.107-.056-.032-.115-.054-.173-.078-4.804-2.748-10.358-4.327-16.278-4.327-5.925 0-11.484 1.583-16.291 4.335-.052.022-.105.041-.156.069-.049.028-.09.064-.135.098-4.885 2.863-8.967 6.948-11.828 11.836-.027.039-.059.073-.083.115-.023.041-.038.085-.057.127-2.762 4.814-4.351 10.383-4.351 16.32 0 5.946 1.594 11.524 4.366 16.343.016.034.027.069.046.102.014.024.035.042.05.065 2.862 4.909 6.956 9.013 11.859 11.886.042.031.081.065.127.092.037.021.076.029.114.047 4.817 2.769 10.394 4.361 16.337 4.361 5.938 0 11.508-1.589 16.322-4.352.042-.019.086-.028.127-.052.052-.03.096-.068.143-.103 4.892-2.87 8.978-6.964 11.837-11.862.02-.029.046-.051.063-.082.024-.041.039-.086.059-.129zm-12.331 8.766l-.958-1.662c-.415-.721-1.335-.969-2.057-.555-.72.416-.967 1.336-.552 2.057l.961 1.669c-3.666 1.884-7.766 3.039-12.11 3.256v-3.554c0-.834-.674-1.504-1.505-1.504s-1.505.67-1.505 1.504v3.554c-4.345-.217-8.444-1.372-12.11-3.255l.963-1.666c.416-.723.17-1.645-.548-2.061-.724-.414-1.641-.17-2.057.553l-.963 1.665a30.1172 30.1172 0 0 1-8.864-8.861l1.665-.96c.718-.418.967-1.34.552-2.057-.417-.721-1.335-.969-2.057-.553l-1.67.963c-1.885-3.667-3.042-7.766-3.258-12.112h3.557c.831 0 1.505-.672 1.505-1.504s-.674-1.506-1.505-1.506h-3.557c.217-4.345 1.373-8.444 3.257-12.11l1.67.964c.237.137.497.199.752.199.52 0 1.026-.271 1.305-.754.415-.717.166-1.639-.552-2.055l-1.665-.961a30.112 30.112 0 0 1 8.864-8.863l.959 1.665c.279.482.785.756 1.305.756.255 0 .512-.064.751-.203.718-.414.965-1.334.552-2.053l-.963-1.673c3.666-1.885 7.765-3.041 12.11-3.257v3.554c0 .834.674 1.504 1.505 1.504s1.505-.67 1.505-1.504v-3.554c4.345.217 8.445 1.373 12.111 3.257l-.962 1.666c-.416.721-.17 1.643.552 2.059.235.137.496.199.75.199.52 0 1.026-.268 1.307-.75l.961-1.663a30.1342 30.1342 0 0 1 8.861 8.862l-1.664.961c-.72.416-.967 1.338-.552 2.055.279.482.785.754 1.305.754.253 0 .513-.062.75-.199l1.67-.964c1.885 3.666 3.041 7.766 3.258 12.111h-3.555c-.831 0-1.505.674-1.505 1.506s.674 1.504 1.505 1.504h3.555c-.216 4.346-1.373 8.445-3.257 12.111l-1.67-.963c-.722-.416-1.642-.168-2.055.553-.415.717-.168 1.639.552 2.057l1.664.959a30.1071 30.1071 0 0 1-8.863 8.859z"/></svg>