<svg id="レイヤー_1" xmlns="http://www.w3.org/2000/svg" width="110" height="23"><style>.st1{fill:#f1f1f1}</style><path d="M110 20c0 1.65-1.35 3-3 3H3c-1.65 0-3-1.35-3-3V3c0-1.65 1.35-3 3-3h104c1.65 0 3 1.35 3 3v17z" fill="#55a744"/><path class="st1" d="M40.362 13.7c0-1.307.862-2.183 1.778-2.668v-.067c-.74-.525-1.334-1.266-1.334-2.317 0-1.549 1.199-2.56 2.83-2.56 1.725 0 2.803 1.078 2.803 2.627 0 1.011-.688 1.873-1.307 2.331v.067c.889.512 1.67 1.28 1.67 2.628 0 1.468-1.293 2.6-3.207 2.6-1.859 0-3.233-1.105-3.233-2.641zm4.972 0c0-1.213-1.092-1.671-2.438-2.223-.687.472-1.159 1.212-1.159 2.074 0 .984.822 1.671 1.887 1.671 1.01.001 1.71-.592 1.71-1.522zm-.201-4.89c0-.916-.553-1.604-1.523-1.604-.809 0-1.414.553-1.414 1.441 0 1.078.943 1.577 2.047 2.008.593-.552.89-1.185.89-1.845zM48.598 8.756h1.266l.122 1.037h.04c.633-.674 1.375-1.226 2.291-1.226 1.104 0 1.725.512 2.048 1.36.728-.781 1.481-1.36 2.411-1.36 1.55 0 2.277 1.051 2.277 2.937v4.662h-1.549v-4.474c0-1.279-.404-1.792-1.24-1.792-.512 0-1.051.337-1.67 1.011v5.255h-1.55v-4.474c0-1.279-.392-1.792-1.239-1.792-.499 0-1.051.337-1.672 1.011v5.255h-1.535v-7.41zM60.768 12.475c0-2.412 1.645-3.907 3.383-3.907 1.967 0 3.018 1.414 3.018 3.517 0 .296-.027.605-.066.781h-4.811c.121 1.414 1.01 2.264 2.291 2.264.66 0 1.226-.202 1.764-.553l.539.983c-.687.458-1.535.781-2.506.781-2.009 0-3.612-1.428-3.612-3.866zm5.066-.674c0-1.28-.579-2.021-1.656-2.021-.93 0-1.752.715-1.9 2.021h3.556zM69.151 13.741V9.995h-1.077V8.836l1.145-.08.176-2.048h1.307v2.048h1.927v1.239h-1.927v3.759c0 .89.31 1.348 1.078 1.348.256 0 .579-.081.795-.175l.283 1.145c-.418.135-.917.27-1.455.27-1.673-.001-2.252-1.038-2.252-2.601zM73.721 12.475c0-2.412 1.645-3.907 3.383-3.907 1.967 0 3.018 1.414 3.018 3.517 0 .296-.027.605-.067.781h-4.81c.121 1.414 1.01 2.264 2.29 2.264.66 0 1.226-.202 1.765-.553l.539.983c-.688.458-1.536.781-2.506.781-2.009 0-3.612-1.428-3.612-3.866zm5.066-.674c0-1.28-.58-2.021-1.657-2.021-.93 0-1.751.715-1.899 2.021h3.556zM81.861 8.756h1.267l.122 1.334h.04c.525-.957 1.307-1.522 2.102-1.522.364 0 .606.054.835.161l-.282 1.348c-.257-.081-.444-.121-.741-.121-.606 0-1.334.417-1.806 1.59v4.621h-1.536V8.756zM86.593 15.317l.728-.997c.66.525 1.307.849 2.102.849.89 0 1.307-.431 1.307-.997 0-.674-.834-.97-1.643-1.28-.984-.377-2.115-.902-2.115-2.155 0-1.239.996-2.169 2.627-2.169.997 0 1.805.403 2.412.875l-.729.957c-.512-.377-1.037-.646-1.656-.646-.809 0-1.186.404-1.186.916 0 .633.768.876 1.576 1.172 1.037.391 2.182.849 2.182 2.25 0 1.24-.982 2.25-2.815 2.25-1.026-.001-2.076-.432-2.79-1.025z"/><g><path d="M18.297 2.415c5.383 0 9.748 3.494 9.748 7.805 0 1.506-.532 2.912-1.455 4.105-.045.067-.105.143-.18.226l-.006.005c-.315.378-.67.73-1.06 1.057-2.696 2.493-7.133 5.46-7.718 5.002-.509-.398.838-2.344-.717-2.668-.108-.012-.216-.025-.324-.04h-.002c-4.566-.649-8.034-3.843-8.034-7.687 0-4.311 4.364-7.805 9.748-7.805z" fill="#fff"/><path d="M12.641 12.709h1.966c.28 0 .508-.228.508-.509v-.041c0-.279-.229-.508-.508-.508h-1.415v-3.22c0-.279-.229-.509-.509-.509h-.042c-.28 0-.509.229-.509.509v3.77c0 .28.229.508.509.508zm12.182-2.362v-.042c0-.28-.229-.509-.508-.509H22.9v-.805h1.415c.28 0 .508-.229.508-.508V8.44c0-.279-.229-.509-.508-.509h-1.966c-.28 0-.509.229-.509.509v3.771c0 .279.229.508.509.508h1.966c.28 0 .508-.229.508-.508v-.043c0-.279-.229-.51-.508-.51H22.9v-.803h1.415c.28 0 .508-.229.508-.508zm-3.78 2.212a.5087.5087 0 0 0 .146-.358v-3.77c0-.279-.229-.509-.508-.509h-.042c-.279 0-.508.229-.508.509v2.214L18.292 8.18c-.087-.153-.253-.258-.441-.258h-.042c-.28 0-.509.229-.509.509v3.77c0 .281.229.509.509.509h.042c.279 0 .508-.228.508-.509V9.948l1.851 2.526c.011.019.024.034.037.052.051.069.121.117.198.146.06.024.125.037.193.037h.042c.083 0 .165-.02.237-.059.052-.024.096-.054.126-.091zm-5.009.15h.042c.28 0 .508-.228.508-.509V8.43c0-.279-.229-.509-.508-.509h-.042c-.28 0-.508.229-.508.509v3.77c0 .281.228.509.508.509z" fill="#3ac901"/></g></svg>