<svg id="レイヤー_1" xmlns="http://www.w3.org/2000/svg" width="29.033" height="29.033"><style>.st0{fill:#fff}</style><path class="st0" d="M14.619 21.774c-3.982 0-7.22-3.236-7.22-7.218s3.238-7.222 7.22-7.222c3.981 0 7.221 3.239 7.221 7.222 0 3.982-3.239 7.218-7.221 7.218zm0-11.248c-2.222 0-4.03 1.808-4.03 4.03s1.809 4.029 4.03 4.029c2.223 0 4.03-1.807 4.03-4.029s-1.808-4.03-4.03-4.03z"/><circle class="st0" cx="22.265" cy="7.244" r="1.851"/><path class="st0" d="M20.085 29.033H8.949C4.014 29.033 0 25.019 0 20.084V8.948C0 4.015 4.014 0 8.949 0h11.136c4.934 0 8.948 4.015 8.948 8.948v11.136c0 4.935-4.014 8.949-8.948 8.949zM8.655 3.212c-2.994 0-5.429 2.435-5.429 5.429v11.75c0 2.994 2.435 5.43 5.429 5.43h11.722c2.993 0 5.429-2.436 5.429-5.43V8.641c0-2.994-2.436-5.429-5.429-5.429H8.655z"/></svg>